<?xml version="1.0" encoding="UTF-8"?>
<!DOCTYPE svg PUBLIC "-//W3C//DTD SVG 1.1//EN" "http://www.w3.org/Graphics/SVG/1.1/DTD/svg11.dtd">
<!-- Creator: CorelDRAW X5 -->
<svg xmlns="http://www.w3.org/2000/svg" xml:space="preserve" width="111.378mm" height="130mm" style="shape-rendering:geometricPrecision; text-rendering:geometricPrecision; image-rendering:optimizeQuality; fill-rule:evenodd; clip-rule:evenodd"
viewBox="0 0 11138 13000"
 xmlns:xlink="http://www.w3.org/1999/xlink">
 <defs>
  <style type="text/css">
   <![CDATA[
    .fil22 {fill:none}
    .fil18 {fill:#1D1819}
    .fil7 {fill:#D0753B}
    .fil21 {fill:#FDD100}
    .fil19 {fill:#FFF000}
    .fil28 {fill:black}
    .fil12 {fill:#00913E}
    .fil24 {fill:#00923F}
    .fil3 {fill:#018E3C}
    .fil0 {fill:#034189}
    .fil13 {fill:#03428B}
    .fil6 {fill:#0A0909}
    .fil15 {fill:#1C1D22}
    .fil16 {fill:#1D1C1E}
    .fil17 {fill:#211C19}
    .fil26 {fill:#8C7002}
    .fil5 {fill:#D8251D}
    .fil14 {fill:#EFC419}
    .fil25 {fill:#FEF400}
    .fil1 {fill:#FEFEFE}
    .fil29 {fill:white}
    .fil27 {fill:#332C2B;fill-rule:nonzero}
    .fil4 {fill:#1D1819;fill-rule:nonzero}
    .fil20 {fill:#FDD100;fill-rule:nonzero}
    .fil2 {fill:black;fill-rule:nonzero}
    .fil8 {fill:#004991;fill-rule:nonzero}
    .fil23 {fill:#0A0909;fill-rule:nonzero}
    .fil9 {fill:#2673BF;fill-rule:nonzero}
    .fil10 {fill:#5A93CC;fill-rule:nonzero}
    .fil11 {fill:white;fill-rule:nonzero}
   ]]>
  </style>
 </defs>
 <g id="Layer_x0020_1">
  <metadata id="CorelCorpID_0Corel-Layer"/>
  <path class="fil0" d="M9492 7512c800,-1656 662,-3951 -341,-5472 -459,-696 -1028,-1280 -1794,-1641 -412,-194 -843,-329 -1358,-365 -1096,-77 -1965,334 -2608,826l-340 295c-91,108 -199,187 -314,335 -351,453 -557,720 -817,1336 -636,1510 -607,3450 185,4920 76,140 244,456 333,540 1081,1783 3261,1755 3261,1755 2107,-72 2984,-858 3792,-2528z"/>
  <path class="fil1" d="M8151 1356c49,50 -23,201 -162,339 -139,138 -291,209 -340,159 -24,-24 1,-31 -41,-73 -47,-48 -47,-125 1,-172 10,-10 20,-17 32,-23 -36,-70 -33,-146 18,-198 52,-51 149,-71 223,-22 2,-28 4,-54 45,-81 41,-28 112,-26 159,22 33,34 50,34 65,49z"/>
  <path class="fil2" d="M8164 1343l0 0c31,31 26,89 -7,158 -30,63 -84,137 -155,208 -71,70 -145,124 -209,153 -69,32 -127,37 -158,6 -15,-15 -17,-25 -18,-36 -1,-8 -3,-17 -22,-37 -27,-28 -41,-64 -41,-100 0,-36 14,-72 41,-99 6,-6 12,-11 18,-15l3 -2c-14,-34 -21,-69 -18,-103 3,-38 19,-73 47,-101 30,-30 74,-50 120,-54 33,-3 68,1 100,16 4,-22 16,-44 50,-67 26,-17 60,-25 95,-20 31,4 63,18 88,44 18,18 31,26 41,32 9,5 16,9 23,17zm-41 142c26,-54 32,-97 14,-115l0 0c-4,-4 -9,-7 -16,-11 -12,-7 -27,-16 -49,-38 -19,-20 -43,-30 -66,-33 -26,-4 -51,2 -69,14 -33,22 -35,43 -37,66 0,10 -2,23 -3,33l-27 -18c-31,-21 -68,-27 -102,-24 -38,4 -73,20 -97,44 -22,22 -33,48 -36,77 -3,31 5,66 21,98l9 17 -17 8c-5,2 -9,5 -14,8 -5,3 -9,7 -13,11 -20,20 -30,46 -30,73 0,26 10,53 30,73 28,28 30,44 33,57 1,5 2,10 8,16 18,19 61,12 115,-13 60,-28 130,-79 198,-146 68,-67 119,-138 147,-197z"/>
  <path class="fil3" d="M7849 1722c-83,-34 -180,0 -261,83 101,171 408,263 593,90 172,-194 106,-450 -75,-607 -65,37 -133,147 -84,248 -119,-68 -259,56 -173,185z"/>
  <path class="fil2" d="M7842 1739c-37,-15 -77,-15 -117,-2 -39,12 -77,37 -113,71 9,13 19,26 30,37 53,57 133,99 218,116 85,17 176,8 253,-38 19,-11 38,-25 56,-42l2 -2c79,-91 104,-197 87,-298 -16,-99 -72,-195 -153,-270 -29,20 -57,56 -71,97 -12,37 -14,79 6,119l27 55 -53 -30c-32,-18 -65,-21 -93,-12 -19,6 -36,16 -49,30 -13,14 -23,31 -27,50 -6,27 0,59 21,91l34 52 -57 -24zm-128 -38c33,-11 67,-14 99,-9 -10,-28 -11,-55 -6,-79 5,-26 18,-50 36,-68 18,-19 41,-32 66,-40 25,-7 53,-8 82,-1 -8,-37 -4,-73 7,-106 19,-56 59,-103 99,-125l12 -7 14 13c92,81 154,187 172,298 18,112 -9,228 -96,328 -1,1 -3,4 -4,5 -20,18 -41,34 -63,47 -86,51 -186,61 -279,43 -93,-18 -179,-65 -238,-127 -17,-18 -31,-37 -43,-56l-7 -12 10 -10c43,-44 91,-76 139,-91z"/>
  <path class="fil1" d="M8577 1745c49,50 -23,201 -162,339 -139,138 -291,209 -340,159 -24,-24 1,-31 -41,-73 -47,-48 -47,-125 1,-172 10,-10 20,-17 32,-23 -36,-70 -33,-146 18,-198 52,-51 149,-71 223,-22 2,-28 4,-54 45,-81 41,-28 112,-26 159,22 33,34 50,34 65,49z"/>
  <path class="fil2" d="M8590 1731c31,31 26,89 -7,158 -30,63 -84,137 -155,208l-1 1c-71,70 -145,123 -209,153 -69,32 -127,37 -158,6 -15,-15 -17,-25 -18,-36 -1,-8 -3,-17 -22,-37 -27,-28 -41,-64 -41,-100 0,-36 14,-72 42,-100 6,-6 12,-11 18,-15l3 -2c-14,-34 -21,-69 -18,-103 3,-38 19,-73 47,-101 30,-30 74,-50 120,-55 33,-3 68,1 100,16 4,-22 16,-44 50,-67 26,-17 60,-25 95,-20 31,4 63,18 88,44 18,18 31,26 41,32 9,5 16,9 23,17zm-41 142c26,-54 32,-97 14,-115 -4,-4 -9,-7 -16,-11 -12,-7 -27,-16 -49,-38 -19,-20 -43,-30 -66,-33 -26,-4 -51,2 -69,14 -33,22 -35,43 -37,66 0,10 -2,23 -3,33l-27 -18c-31,-21 -67,-27 -102,-24 -38,4 -73,20 -97,44 -22,22 -33,48 -36,77 -3,31 5,65 21,98l9 17 -17 8c-5,2 -9,5 -14,8 -5,3 -9,7 -13,11 -20,20 -30,46 -30,73 0,26 10,53 30,73 28,28 30,43 33,57 1,5 2,10 8,16 18,19 61,12 115,-13 60,-28 130,-79 198,-146l0 -1c68,-67 119,-138 148,-197z"/>
  <path class="fil3" d="M8275 2110c-83,-34 -180,0 -261,83 101,171 408,263 593,90 172,-194 106,-450 -75,-607 -65,37 -133,147 -84,248 -119,-68 -259,56 -173,185z"/>
  <path class="fil2" d="M8268 2128c-37,-15 -77,-15 -117,-3 -39,12 -77,37 -113,71 9,13 19,26 30,37 53,57 133,100 218,116 85,17 176,8 253,-38 19,-11 38,-25 55,-41l3 -3c79,-91 104,-196 87,-298 -16,-100 -72,-195 -153,-270 -29,20 -57,56 -71,97 -12,37 -14,79 6,119l27 55 -53 -30c-32,-18 -65,-21 -93,-12 -19,6 -36,16 -49,30 -13,14 -23,31 -27,50 -6,27 0,59 21,91l34 52 -57 -24zm-128 -38c33,-11 67,-14 99,-9 -10,-28 -11,-55 -6,-79 5,-26 18,-50 36,-68 18,-19 41,-32 66,-40 25,-7 53,-8 81,-1 -8,-37 -4,-73 7,-106 19,-56 59,-103 99,-125l12 -7 15 13c92,81 154,187 172,298 18,112 -9,228 -96,328 -1,2 -3,4 -5,5 -20,18 -41,34 -63,47 -86,51 -186,61 -279,42 -93,-18 -179,-65 -238,-128 -17,-18 -31,-36 -43,-56l-7 -12 10 -10c43,-44 91,-76 139,-91z"/>
  <path class="fil1" d="M9002 2374c33,62 -80,186 -252,278 -172,92 -339,116 -371,55 -16,-30 10,-30 -18,-82 -32,-59 -9,-133 50,-165 12,-6 25,-11 37,-13 -14,-77 10,-150 74,-184 64,-34 163,-25 220,43 10,-26 19,-50 67,-65 48,-15 114,7 146,67 22,42 38,47 48,66z"/>
  <path class="fil2" d="M9018 2365c21,39 -1,93 -52,149 -47,52 -120,107 -208,154l-1 0c-88,47 -175,77 -244,87 -73,11 -129,-1 -151,-37l-2 -3c-10,-19 -9,-29 -7,-40 1,-8 2,-17 -11,-41l0 0c-18,-34 -21,-73 -10,-107 11,-34 34,-65 68,-83 7,-4 14,-7 21,-9l4 -1c-4,-37 0,-72 13,-103 14,-35 39,-64 74,-83 37,-20 85,-27 131,-18 33,6 65,21 92,44 11,-20 28,-37 67,-50 29,-9 64,-6 96,8 28,13 55,36 72,68 12,23 22,34 31,43 7,7 12,13 17,23zm-80 124c40,-44 59,-83 46,-106 -3,-5 -7,-10 -12,-15 -9,-10 -21,-23 -36,-51 -13,-24 -33,-41 -54,-51 -23,-11 -49,-13 -70,-6 -38,12 -46,31 -54,53l-12 31 -21 -25c-24,-29 -57,-46 -91,-52 -37,-7 -76,-2 -106,14 -27,14 -46,37 -57,64 -12,29 -14,64 -8,100l3 19 -19 3c-5,1 -11,2 -16,4 -5,2 -10,4 -15,7l0 0c-25,13 -42,36 -50,61 -8,25 -6,53 8,78 18,35 17,50 15,64 -1,5 -1,10 3,18 12,23 55,29 114,21 65,-10 148,-38 232,-83l1 0c84,-45 154,-98 198,-146z"/>
  <path class="fil3" d="M8608 2638c-69,-57 -173,-52 -274,5 47,193 315,370 542,257 220,-136 231,-400 102,-603 -73,17 -170,102 -152,214 -94,-99 -264,-21 -219,128z"/>
  <path class="fil2" d="M8596 2653c-31,-25 -69,-37 -111,-36 -40,1 -84,13 -129,36 5,15 11,30 18,44 35,70 98,133 175,174 76,40 166,58 253,36 22,-5 43,-13 65,-24l3 -2c102,-65 156,-158 169,-260 13,-100 -13,-208 -69,-303 -34,11 -70,37 -96,73 -23,32 -36,72 -28,116l10 60 -42 -44c-25,-26 -56,-38 -86,-38 -20,0 -39,5 -56,14 -17,9 -30,23 -40,40 -13,24 -17,56 -6,93l18 59 -48 -39zm-112 -74c35,-1 68,6 98,20 -2,-30 5,-56 17,-78 13,-24 32,-42 55,-55 22,-13 48,-19 75,-19 27,0 54,7 79,22 3,-38 17,-71 37,-100 34,-48 86,-81 131,-91l13 -3 10 16c64,104 94,224 79,335 -15,112 -74,216 -187,287 -2,1 -4,2 -6,3 -24,12 -49,21 -73,27 -97,24 -196,5 -280,-40 -84,-44 -153,-114 -191,-191 -11,-21 -19,-44 -24,-66l-3 -14 13 -7c54,-30 109,-46 159,-47z"/>
  <path class="fil1" d="M9348 3023c21,67 -113,168 -299,227 -186,59 -354,52 -375,-15 -10,-33 15,-28 -3,-83 -20,-64 15,-133 80,-153 13,-4 26,-6 39,-6 0,-78 38,-145 107,-167 69,-22 164,5 208,83 15,-24 28,-46 77,-52 50,-6 111,28 131,92 14,45 29,53 35,73z"/>
  <path class="fil2" d="M9330 3029l0 -1c-2,-5 -5,-10 -8,-16 -7,-12 -17,-27 -26,-56 -8,-26 -25,-47 -44,-60 -21,-15 -46,-22 -67,-19 -40,5 -51,22 -63,42l-17 28 -16 -28c-18,-33 -47,-55 -79,-68 -35,-14 -74,-16 -106,-6 -29,9 -52,28 -67,52 -17,27 -26,60 -26,97l0 19 -19 0c-5,0 -11,0 -16,1 -5,1 -11,2 -16,4l0 0c-27,9 -48,27 -60,51 -12,23 -15,51 -7,78 12,37 7,53 3,66 -2,5 -3,9 0,18 8,25 49,39 108,41 66,3 152,-10 243,-39l0 0c91,-29 169,-68 221,-107 47,-36 73,-71 65,-96zm36 -11l1 3c11,41 -20,89 -79,134 -56,42 -138,84 -233,114l-1 0c-95,30 -186,43 -256,41 -76,-3 -130,-26 -143,-67 -6,-20 -3,-30 0,-41 2,-8 5,-17 -3,-42l0 0c-12,-37 -7,-75 9,-107 17,-32 45,-58 82,-69 8,-2 15,-4 22,-5l4 -1c3,-37 13,-71 31,-99 20,-32 50,-56 88,-68 40,-13 88,-11 132,7 31,12 60,32 82,60 14,-18 34,-32 75,-37 30,-3 65,6 93,26 26,18 47,45 58,80 8,25 16,37 22,48 5,8 10,15 13,26z"/>
  <path class="fil3" d="M8913 3210c-58,-68 -160,-83 -270,-46 11,199 242,421 486,352 241,-93 300,-351 211,-574 -75,3 -186,69 -188,182 -74,-115 -256,-69 -239,85z"/>
  <path class="fil2" d="M8898 3222c-26,-30 -61,-49 -103,-56 -40,-7 -85,-3 -133,11 2,16 5,31 9,47 21,75 72,149 140,203 68,54 152,87 242,82 22,-1 45,-5 68,-11l3 -1c112,-45 182,-127 214,-224 31,-96 26,-206 -12,-310 -35,5 -76,24 -108,54 -28,27 -48,64 -49,108l-1 61 -33 -51c-20,-30 -48,-48 -77,-54 -20,-4 -39,-2 -58,4 -18,6 -34,17 -47,32 -17,21 -27,52 -23,91l7 61 -40 -47zm-96 -93c35,6 66,18 92,38 4,-29 15,-54 31,-73 17,-21 39,-36 64,-44 24,-8 51,-10 77,-5 26,5 51,17 73,36 10,-36 30,-67 55,-91 42,-41 100,-64 146,-66l14 -1 7 18c44,114 51,237 16,344 -35,108 -112,199 -236,248 -2,1 -4,2 -6,2 -26,7 -52,12 -77,13 -99,6 -193,-31 -267,-90 -74,-59 -130,-140 -153,-222 -7,-23 -11,-47 -12,-70l-1 -14 14 -5c58,-20 115,-26 165,-17z"/>
  <path class="fil1" d="M9588 3596c21,67 -113,168 -299,227 -186,59 -354,52 -375,-15 -10,-33 15,-28 -3,-83 -20,-64 15,-133 80,-153 13,-4 26,-6 39,-6 0,-78 38,-145 107,-167 69,-22 164,5 208,83 15,-24 28,-46 77,-52 50,-6 111,28 131,92 14,45 29,53 35,73z"/>
  <path class="fil2" d="M9570 3602l0 -1c-2,-5 -5,-10 -8,-16 -7,-12 -17,-27 -26,-56 -8,-26 -25,-47 -44,-60 -21,-15 -46,-22 -67,-19 -40,5 -51,22 -63,42l-17 28 -16 -28c-18,-33 -47,-55 -79,-68 -35,-14 -74,-16 -106,-6 -29,9 -52,28 -67,52 -17,27 -26,60 -26,97l0 19 -19 0c-5,0 -11,0 -16,1 -5,1 -11,2 -16,4l0 0c-27,9 -48,27 -60,51 -12,23 -15,51 -7,78 12,37 7,53 3,66 -2,5 -3,9 0,18 8,25 49,39 108,41 66,3 152,-10 243,-39l0 0c91,-29 169,-68 221,-107 47,-36 73,-71 65,-96zm36 -11l1 3c11,41 -20,89 -79,134 -56,42 -138,84 -233,114l-1 0c-95,30 -186,43 -256,41 -76,-3 -130,-26 -143,-67 -6,-20 -3,-30 0,-41 2,-8 5,-17 -3,-42l0 0c-12,-37 -7,-75 9,-107 17,-32 45,-58 82,-69 8,-2 15,-4 22,-5l4 -1c3,-37 13,-71 31,-99 20,-32 50,-56 88,-68 40,-13 88,-11 132,7 31,12 60,32 82,60 14,-18 34,-32 75,-37 30,-3 65,6 93,26 26,18 47,45 58,80 8,25 16,37 22,48 5,8 10,15 13,26z"/>
  <path class="fil3" d="M9153 3783c-58,-68 -160,-83 -270,-46 11,199 242,421 486,352 241,-93 300,-351 211,-574 -75,3 -186,69 -188,182 -74,-115 -256,-69 -239,85z"/>
  <path class="fil2" d="M9138 3795c-26,-30 -61,-49 -103,-56 -40,-7 -85,-3 -133,11 2,16 5,31 9,47 21,75 72,149 140,203 68,54 152,87 242,82 22,-1 45,-5 68,-11l3 -1c112,-45 182,-127 214,-224 31,-96 26,-206 -12,-310 -35,5 -76,24 -108,54 -28,27 -48,64 -49,108l-1 61 -33 -51c-20,-30 -48,-48 -77,-54 -20,-4 -39,-2 -58,4 -18,6 -34,17 -46,32 -17,21 -27,52 -23,91l7 61 -40 -47zm-96 -93c35,6 66,18 92,38 4,-29 15,-54 31,-73 17,-21 39,-36 64,-44 24,-8 51,-10 77,-5 26,5 51,17 73,36 10,-36 30,-67 55,-91 42,-41 100,-64 146,-66l14 -1 7 18c44,114 51,237 16,344 -35,108 -112,198 -236,248 -2,1 -4,2 -6,2 -26,7 -52,12 -77,13 -99,6 -193,-31 -267,-90 -74,-59 -130,-140 -153,-222 -7,-23 -11,-47 -12,-70l-1 -14 14 -5c58,-20 115,-26 165,-17z"/>
  <path class="fil1" d="M9727 4362c3,70 -153,133 -348,140 -195,7 -355,-43 -358,-113 -1,-34 22,-23 20,-81 -3,-67 50,-124 117,-126 14,-1 27,1 39,5 21,-75 75,-130 147,-133 73,-3 157,49 179,135 21,-19 39,-37 88,-29 49,8 100,57 102,124 2,47 14,59 14,80z"/>
  <path class="fil2" d="M9745 4362c2,44 -41,83 -112,112 -65,26 -155,44 -255,48 -100,4 -191,-7 -258,-28 -73,-23 -118,-59 -120,-103 -1,-21 5,-30 11,-39 4,-7 10,-15 9,-42l0 -1c-1,-38 13,-74 37,-100 24,-26 59,-43 98,-45l1 0c8,0 15,0 22,1l4 1c12,-35 32,-65 56,-87 28,-25 63,-41 103,-42 42,-2 88,13 125,41 27,20 49,47 63,80 18,-13 41,-22 82,-15 30,5 61,22 83,50 20,24 34,56 35,92 1,26 5,40 9,52 3,10 5,17 6,28zm-126 77c55,-22 89,-49 88,-75 0,-6 -2,-12 -4,-19 -4,-13 -9,-30 -10,-61 -1,-27 -11,-51 -26,-70 -16,-20 -38,-33 -60,-36 -40,-6 -55,8 -72,24l-24 23 -8 -31c-9,-36 -31,-66 -59,-87 -30,-23 -67,-35 -101,-34 -31,1 -57,13 -79,33 -23,21 -41,51 -51,87l-5 18 -18 -5c-5,-1 -10,-3 -16,-3 -6,-1 -11,-1 -17,-1l-1 0c-28,1 -53,14 -71,33 -18,19 -28,45 -27,74l0 1c1,39 -7,52 -15,63 -3,4 -5,8 -5,17 1,26 37,50 94,68 63,20 150,30 245,27 95,-4 181,-21 242,-45z"/>
  <path class="fil3" d="M9257 4428c-38,-81 -133,-122 -248,-115 -42,195 122,470 375,468 258,-26 382,-259 356,-498 -73,-17 -197,18 -230,126 -41,-130 -228,-134 -253,19z"/>
  <path class="fil2" d="M9240 4436c-17,-36 -46,-63 -84,-81 -37,-17 -82,-25 -131,-24 -2,16 -4,32 -3,48 1,78 30,163 82,233 51,70 124,124 211,143 22,5 45,7 69,7l4 0c120,-13 209,-74 266,-160 56,-84 79,-192 70,-303 -35,-4 -80,3 -118,24 -34,19 -63,49 -76,92l-18 59 -19 -58c-11,-34 -34,-59 -60,-72 -18,-9 -37,-13 -57,-12 -19,1 -37,7 -53,19 -22,16 -40,43 -46,81l-10 61 -26 -56zm-68 -115c32,15 59,35 79,61 11,-27 29,-48 49,-63 22,-16 47,-24 73,-26 26,-2 52,4 76,15 24,12 45,30 61,54 19,-33 46,-57 77,-74 52,-28 113,-35 158,-25l13 3 2 19c12,122 -13,242 -75,336 -62,94 -161,162 -293,177l-7 1c-27,0 -53,-3 -78,-8 -97,-21 -178,-81 -234,-158 -56,-76 -88,-169 -89,-255 0,-24 2,-48 7,-70l3 -14 14 -1c62,-4 118,6 164,27z"/>
  <path class="fil1" d="M9768 4997c-8,70 -171,108 -365,87 -194,-22 -345,-95 -337,-165 4,-34 25,-19 31,-77 7,-67 68,-115 135,-108 13,2 26,5 38,11 32,-71 93,-118 165,-110 72,8 148,71 157,160 23,-16 44,-31 92,-16 48,15 90,71 83,138 -5,47 5,60 2,81z"/>
  <path class="fil2" d="M9787 4997l0 1c-5,44 -53,76 -127,94 -68,16 -159,21 -258,10l-1 0c-99,-11 -188,-36 -251,-66 -68,-33 -108,-76 -104,-120 2,-21 9,-28 17,-37 5,-6 12,-13 15,-40 4,-39 24,-72 52,-94 28,-23 65,-34 103,-30 8,1 15,2 22,4l4 1c17,-33 41,-60 69,-78 31,-21 68,-31 108,-27 42,5 85,26 118,59 23,24 42,54 50,88 20,-11 44,-15 84,-3 29,9 57,31 75,61 16,27 25,60 21,96 -3,26 -1,41 1,53 1,9 2,17 2,27zm-136 59c58,-14 95,-35 98,-61l0 0c1,-6 0,-12 -1,-19 -2,-14 -4,-31 -1,-62 3,-27 -4,-53 -16,-73 -13,-22 -33,-38 -54,-45 -38,-12 -56,0 -75,13l-27 19 -3 -33c-4,-37 -21,-70 -45,-94 -27,-27 -61,-45 -95,-48 -30,-3 -59,4 -83,21 -26,18 -48,45 -63,78l-8 18 -17 -8c-5,-2 -10,-4 -16,-6 -5,-1 -11,-3 -16,-3 -28,-3 -55,5 -76,22 -21,16 -35,41 -38,69 -4,39 -15,51 -24,61 -3,4 -6,7 -7,16 -3,26 29,55 83,81 59,29 143,52 238,63l1 0c95,10 182,6 246,-9z"/>
  <path class="fil3" d="M9294 4992c-25,-86 -113,-141 -229,-151 -70,186 51,483 302,518 259,12 416,-200 425,-440 -70,-27 -198,-12 -246,91 -22,-135 -206,-167 -253,-19z"/>
  <path class="fil2" d="M9276 4997c-11,-38 -36,-69 -71,-93 -34,-22 -77,-37 -126,-43 -5,15 -8,31 -10,47 -11,78 6,166 46,243 40,76 104,141 188,173 21,8 43,14 67,17l4 0c121,4 218,-43 286,-119 67,-75 107,-178 114,-289 -34,-10 -79,-9 -120,6 -37,14 -70,39 -89,79l-26 55 -10 -60c-6,-36 -25,-63 -49,-80 -16,-11 -35,-18 -54,-20 -19,-2 -38,2 -56,11 -25,13 -46,37 -57,74l-19 59 -17 -59zm-51 -124c29,19 53,43 69,72 15,-25 35,-43 58,-55 24,-12 50,-17 76,-15 26,2 51,11 73,26 22,15 40,36 52,63 23,-29 54,-49 87,-61 55,-20 117,-18 160,-1l13 5 -1 19c-6,122 -49,238 -124,321 -76,84 -183,136 -316,131 -2,0 -5,0 -7,0 -27,-4 -52,-10 -76,-19 -93,-35 -164,-107 -208,-191 -44,-84 -62,-180 -50,-265 3,-24 9,-47 17,-68l5 -13 14 1c62,5 116,23 158,51z"/>
  <path class="fil4" d="M9470 7501c399,-825 563,-1810 503,-2778 -60,-966 -344,-1914 -842,-2670 -228,-347 -484,-665 -778,-942 -294,-276 -625,-511 -1006,-691 -205,-96 -414,-178 -636,-240 -222,-62 -457,-104 -712,-122 -545,-38 -1033,45 -1464,198 -432,154 -807,378 -1127,623l-338 293c-39,46 -80,87 -124,129 -59,58 -122,119 -188,203 -175,226 -314,406 -441,605 -127,199 -243,419 -372,725 -321,763 -472,1637 -440,2504 32,841 236,1675 624,2395l8 15c78,146 237,440 320,518l2 2 2 3c1067,1760 3206,1743 3240,1743l0 0c1048,-36 1790,-249 2370,-660 580,-412 999,-1023 1401,-1854zm552 -2781c61,976 -105,1970 -508,2802 -405,839 -829,1456 -1416,1873 -588,417 -1338,633 -2397,669l-1 0c-6,0 -2192,28 -3280,-1764 -89,-87 -248,-382 -327,-528l-8 -15c-392,-727 -597,-1568 -629,-2416 -33,-874 119,-1755 443,-2525 130,-309 247,-531 376,-732 129,-202 268,-382 444,-609 67,-87 132,-150 192,-209 43,-42 85,-83 122,-127l1 -2 1 -1 340 -295 1 -1c323,-248 703,-475 1140,-630 437,-156 932,-240 1484,-201 259,18 497,61 722,124 225,63 437,146 644,243 386,182 721,419 1019,699 297,279 555,601 786,951 503,763 790,1720 850,2694z"/>
  <path class="fil1" d="M5732 5075l2899 0c-6,-974 -340,-1838 -798,-2421 -399,-509 -1079,-1102 -2101,-1113l0 3534z"/>
  <path class="fil5" d="M5731 8645c1283,-9 2298,-992 2678,-2146 115,-349 258,-990 228,-1388l-2904 0 -1 3534z"/>
  <path class="fil1" d="M5695 8645l0 -3534c-55,0 -130,-4 -180,0 -83,7 -52,45 -145,21 -158,-40 -901,-21 -1096,-21 -492,0 -983,0 -1475,0 -47,792 321,1823 792,2419 406,514 1079,1101 2104,1115z"/>
  <path class="fil6" d="M3517 6793c-7,21 -23,36 -39,49 -15,12 -29,22 -47,29 -10,4 -21,2 -30,-4 -9,-7 -13,-17 -12,-28 5,-50 16,-99 22,-149 4,-32 9,-64 12,-96 9,-79 12,-154 9,-233 -10,-270 -14,-542 -7,-812 0,-9 4,-17 11,-23 7,-6 16,-8 25,-6l465 85c14,3 25,14 25,29 6,138 2,276 -2,413 -4,136 -8,273 -2,409 6,140 24,277 59,413 3,13 -2,26 -13,34 -7,5 -12,9 -20,13 -7,3 -13,6 -21,7l-5 35c-2,13 -11,23 -24,26 -13,3 -26,-3 -33,-14 -16,-25 -31,-49 -44,-77 -22,-46 -45,-92 -61,-140 0,0 0,0 -1,0 -2,0 -3,1 -5,1 -7,22 -8,67 -9,82 -1,24 -4,49 -10,72 -4,14 -17,23 -32,22 -15,-1 -26,-12 -28,-27l-19 -139c-20,16 -46,44 -54,53 -18,20 -38,40 -59,57 -9,7 -20,9 -31,5 -11,-4 -18,-14 -19,-25 -1,-11 0,-21 2,-32 2,-12 5,-20 1,-29 -2,0 -5,0 -8,-1z"/>
  <path class="fil7" d="M3420 6842c5,-46 16,-103 22,-149 14,-109 27,-186 22,-334 -10,-266 -14,-542 -7,-810l465 85c19,414 -55,815 57,1242 -10,7 -21,17 -40,16 -4,0 -10,-2 -11,4l-7 57c-13,-22 -29,-45 -42,-73 -24,-52 -50,-100 -66,-154 -5,-20 -29,1 -49,0 -27,32 -13,118 -30,175l-24 -176c-40,-12 -105,85 -158,127 -3,-28 19,-52 -10,-85 -11,-3 -41,-5 -49,0 -4,3 -4,11 -5,16 -4,14 -16,26 -30,37 -12,9 -23,18 -38,24z"/>
  <path class="fil6" d="M5046 5647l49 -144c5,-13 16,-22 30,-22l272 -5c10,0 19,4 26,12 7,8 9,18 7,28l-79 376 81 -25c11,-4 23,-1 32,7 9,8 13,19 10,31 -71,337 -110,684 -109,1028 1,268 26,551 95,811 4,14 -1,28 -13,36 -12,8 -26,8 -38,-1 -12,-9 -31,-15 -46,-16 -30,-1 -40,21 -45,48 -2,13 -11,22 -23,26 -12,4 -25,0 -34,-9 -25,-28 -62,-58 -103,-51 -61,12 -112,101 -136,153 -6,12 -18,20 -31,19 -14,-1 -25,-9 -29,-22 -20,-56 -42,-110 -83,-155 -55,-61 -127,-84 -207,-86 -16,0 -29,-12 -32,-27 -3,-16 6,-30 20,-36 36,-14 73,-34 106,-55 33,-22 97,-71 98,-115 1,-41 -58,-71 -88,-85 -10,-4 -16,-13 -19,-23 -2,-11 1,-21 8,-29 85,-94 123,-302 139,-424 13,-107 19,-215 20,-322 0,-117 -5,-234 -17,-350 -13,-126 -33,-252 -62,-376 -26,-112 -61,-224 -108,-328 -5,-11 -4,-22 3,-32l65 -95c6,-9 16,-14 27,-14 11,0 21,5 27,14l188 260z"/>
  <path class="fil7" d="M4790 7336c222,-246 230,-1273 -24,-1836l65 -95 225 312 70 -203 272 -5 -91 431 134 -42c-154,737 -133,1405 -13,1854 -32,-23 -125,-53 -142,53 -128,-141 -234,-17 -292,111 -34,-98 -97,-258 -320,-263 124,-49 364,-204 116,-316z"/>
  <path class="fil2" d="M5082 6613c0,-9 7,-16 16,-16 9,0 16,7 16,16 0,62 -11,127 -28,191 -16,63 -38,125 -60,180 -4,11 -4,48 0,92 5,76 18,169 23,200 1,9 -3,-12 -11,-11 -9,1 -18,25 -19,16 -5,-32 -18,-127 -23,-203 -3,-48 -4,-89 3,-106 21,-53 42,-114 58,-176 16,-61 27,-124 27,-183z"/>
  <path class="fil2" d="M5238 7018c2,-8 11,-13 19,-11 8,2 13,11 11,20 -14,51 -27,135 -24,212 3,53 14,103 39,133 6,7 -9,49 -16,55 -7,6 -3,-28 -8,-34 -30,-36 -43,-92 -46,-152 -4,-80 10,-168 25,-222z"/>
  <path class="fil2" d="M5103 7363c4,-8 13,-11 21,-7 8,4 11,13 7,21 -21,43 -32,79 -37,115 -6,36 -6,74 -6,121 0,9 -7,16 -16,16 -9,0 -16,-7 -16,-16 0,-48 1,-87 7,-126 6,-39 18,-78 40,-124z"/>
  <path class="fil5" d="M5688 5075l7 -3543c-579,8 -1070,217 -1486,518 -80,58 -257,199 -320,273 -38,45 -61,58 -106,100l-189 225c-232,302 -414,617 -566,1048 -98,279 -277,1066 -222,1377l2883 1c0,0 0,0 0,0z"/>
  <path class="fil8" d="M4456 3312l-164 -298c0,0 -469,473 -631,680 0,0 550,-163 795,-382z"/>
  <path class="fil8" d="M4527 3934c0,0 88,76 155,175 0,0 -545,213 -553,219 0,0 248,-401 399,-394z"/>
  <path class="fil8" d="M4715 3292c0,0 209,-500 481,-741l39 349 328 127c0,0 -422,293 -773,349l-75 -85z"/>
  <path class="fil9" d="M5236 2901l328 127c0,0 -72,50 -182,113l-271 -137 -62 -293 0 0c46,-59 96,-114 147,-160l39 349z"/>
  <path class="fil10" d="M3505 3863c165,-207 354,-340 537,-425 -148,212 -350,346 -537,425z"/>
  <path class="fil8" d="M3369 4063c251,-56 618,-216 830,-581 29,-50 60,-94 91,-134 293,-79 522,-51 522,-51 -309,1316 -1600,1410 -1600,1410 16,-253 57,-472 157,-644z"/>
  <path class="fil9" d="M3369 4063c43,-73 89,-140 136,-200 187,-80 389,-213 537,-425 85,-40 169,-69 248,-90 -31,39 -62,84 -91,134 -212,365 -579,525 -830,581z"/>
  <path class="fil9" d="M4261 4246c222,-196 421,-474 530,-869 7,-26 14,-53 20,-80l-1600 1410c0,0 575,-42 1049,-461z"/>
  <path class="fil11" d="M3400 4302c49,56 135,61 191,12 56,-49 61,-135 12,-191 -49,-56 -135,-61 -191,-12 -56,49 -61,135 -12,191z"/>
  <path class="fil2" d="M3446 4262c27,31 74,33 104,6 31,-27 34,-74 6,-104 -27,-31 -74,-33 -104,-6 -31,27 -33,74 -6,104z"/>
  <path class="fil0" d="M6774 3066c-120,-80 -290,-238 -359,-240 -55,-1 -319,335 -410,444 223,16 1862,6 2117,2 -38,-56 -120,-130 -171,-184l-371 -374c-63,-65 -161,-189 -187,-188 -29,1 -208,182 -312,269 -94,79 -226,181 -306,270z"/>
  <path class="fil12" d="M2141 9079c263,-325 548,-581 995,-638 -133,-264 -169,-199 -324,-229 -49,-9 -31,0 -52,-26 47,-35 225,7 271,41 41,30 123,160 149,208l371 18c-81,-45 -44,-169 -231,-266 -119,-61 -96,-23 -91,-81 349,107 203,324 479,384 84,18 159,44 243,59 -48,-156 -56,-189 -149,-318 -25,-34 -53,-39 -107,-59 -790,-289 -1489,12 -1553,907z"/>
  <path class="fil12" d="M7111 8543c82,-16 158,-43 246,-61 94,-20 133,-43 175,-114 59,-99 47,-113 129,-175 39,-30 137,-106 185,-76l-45 36c-311,174 -153,186 -281,292 401,-23 354,15 436,-123 102,-171 287,-177 351,-149 -17,35 30,15 -54,34 -112,25 -194,-46 -325,228 327,34 598,198 805,412 38,40 61,69 96,111l101 102c-74,-833 -695,-1154 -1436,-936 -255,75 -208,76 -249,138 -82,124 -56,26 -134,283z"/>
  <path class="fil5" d="M7047 9802c-41,-49 -442,-270 -537,-307 -206,-79 -511,-83 -675,54 124,54 215,73 323,150 -109,74 -257,35 -374,93 84,68 293,131 339,211 -150,23 -198,-10 -332,-11 38,273 465,230 673,149 283,-110 387,-233 583,-339z"/>
  <path class="fil5" d="M4900 9707c118,-78 198,-90 323,-152 -422,-265 -850,13 -1206,247 84,86 435,287 583,348 226,93 628,109 665,-147 -121,-11 -183,30 -331,7l79 -65c31,-20 56,-33 88,-49 56,-28 128,-54 166,-96 -91,-58 -266,-25 -366,-93z"/>
  <path class="fil12" d="M3915 9901c-17,-39 -9,-80 5,-123 91,-282 441,-259 572,-462 -157,-31 -590,-32 -704,53 -6,4 -204,253 -219,362 -7,48 11,139 -26,162 -48,-59 1,-237 35,-293 41,-67 111,-138 140,-201 -114,24 -262,156 -327,220 -93,92 -172,184 -163,377 76,-13 151,-49 239,-63 93,-15 188,-15 282,-9 147,11 381,75 489,74 -51,-21 -208,-152 -283,-185 -20,34 -5,25 -17,52 -16,35 8,15 -24,34z"/>
  <path class="fil12" d="M3445 9041c30,-30 66,-25 137,-13 38,6 75,16 111,28 373,133 22,243 620,201 -106,-80 -154,-229 -261,-284 -59,-30 -139,-50 -199,-78 -54,-26 -33,-26 -105,-7 -174,46 -332,125 -455,236 -75,68 -194,181 -239,304 161,-22 308,-80 488,-56 143,20 51,35 195,-25l155 -52c49,-19 -46,21 19,-9l18 -10c-67,-62 -100,-117 -196,-163 -147,-71 -239,-38 -288,-71z"/>
  <path class="fil5" d="M5520 9546c5,-282 42,-243 46,-264 1,-5 5,-6 7,-8 21,46 74,187 107,226 233,-212 1,-546 -145,-741 -8,-11 -13,-15 -19,-22l-15 -12c-61,65 -100,121 -150,181 -104,124 -199,287 -151,464 48,173 95,106 140,159 5,-35 5,-65 4,-101l3 -78c0,-5 2,-6 3,-9 64,-8 120,138 147,176 7,10 14,21 15,19 1,-2 5,6 8,9z"/>
  <path class="fil12" d="M5102 10652c1,-53 19,-52 47,-101 122,-210 48,-98 205,-223 131,-104 121,-211 130,-445 -127,185 -280,364 -605,368 18,156 113,291 186,385 51,66 219,254 274,292 40,-87 25,-54 100,-108l3 -151c-185,41 -122,104 -221,139 19,-128 162,-149 192,-173 51,-40 38,-254 40,-335 -37,23 -182,122 -208,154 -49,60 -66,166 -144,197z"/>
  <path class="fil12" d="M5900 10722c86,-51 272,-311 292,-479 -459,6 -553,-320 -659,-430 -14,107 -24,210 -31,318 -12,188 -23,135 77,240 114,119 277,175 321,351z"/>
  <path class="fil12" d="M7585 8481c-140,6 -507,99 -619,154 624,94 564,345 820,262 53,-17 252,-59 277,-74 -77,-124 -286,-105 -401,-218 -45,-44 -41,-68 -76,-125z"/>
  <path class="fil12" d="M3009 8834c21,11 229,57 281,73 236,74 298,-221 786,-259 -76,-76 -521,-155 -604,-162 -59,265 -393,193 -463,348z"/>
  <path class="fil12" d="M2958 10206c24,-84 204,-372 257,-444 163,-219 224,-221 369,-347 -164,-31 -335,6 -494,43 -72,17 -67,16 -93,86 -74,206 -84,436 -40,661z"/>
  <path class="fil12" d="M4632 9097c-21,-32 -46,-55 -67,-86 -32,-45 -19,-51 -28,-77 -114,-41 -527,-142 -654,-59 251,63 245,100 370,270 68,91 105,118 190,127 94,10 184,35 269,43 -67,-81 -28,-139 -80,-217z"/>
  <path class="fil12" d="M7629 8476c45,179 243,178 372,246 60,31 67,57 108,104l252 3c-57,-210 -83,-183 -150,-262 -42,-50 8,-34 -79,-59 -139,-41 -356,-56 -503,-32z"/>
  <path class="fil12" d="M2709 8839l260 -7c77,-191 450,-129 463,-352 -165,-12 -347,-11 -498,36 -87,27 -37,14 -72,54 -30,34 -36,24 -69,68 -40,53 -65,124 -85,202z"/>
  <path class="fil13" d="M6051 3684c156,-14 291,-163 481,-115 92,23 232,187 494,98 215,-73 233,-150 487,-30 184,87 301,116 456,-16 24,-25 7,-62 -33,-57 -260,113 -159,99 -463,-25 -245,-100 -320,24 -505,69 -349,85 -273,-255 -742,-53 -124,54 -160,66 -179,75 -24,11 -24,45 6,54z"/>
  <path class="fil12" d="M6301 8986c52,-21 85,-40 142,-66 121,-55 170,-144 368,-253 151,-84 234,-74 269,-145 26,-52 34,-97 52,-156 18,-57 47,-78 75,-124 -218,53 -779,517 -905,744z"/>
  <path class="fil12" d="M4763 8995l-186 -216c-64,-69 -141,-147 -219,-209 -120,-95 -339,-274 -508,-326 138,193 57,110 129,277 33,75 47,52 124,83 51,20 111,51 149,72 170,93 320,270 510,319z"/>
  <path class="fil14" d="M2618 7232c83,-62 149,-206 177,-345 24,-120 33,-364 -24,-463 -114,145 -310,580 -153,809z"/>
  <path class="fil14" d="M2110 7329c102,218 395,477 685,470 -83,-254 -429,-445 -685,-470z"/>
  <path class="fil14" d="M1850 6645c76,203 361,540 640,532 -50,-163 -147,-258 -245,-342 -84,-72 -257,-165 -395,-190z"/>
  <path class="fil14" d="M2256 5748c82,9 219,-195 259,-273 68,-131 106,-293 108,-462 -155,69 -406,426 -367,735z"/>
  <path class="fil14" d="M2357 3685c279,-49 530,-293 620,-554 -264,62 -583,298 -620,554z"/>
  <path class="fil14" d="M2218 5087c247,-80 416,-432 446,-701 -96,42 -247,198 -304,273 -88,116 -141,245 -142,429z"/>
  <path class="fil14" d="M2589 3028c166,-18 305,-78 414,-155 101,-71 226,-203 269,-320 -296,50 -624,235 -683,475z"/>
  <path class="fil14" d="M2383 6557c217,-148 275,-650 199,-808 -189,213 -282,531 -199,808z"/>
  <path class="fil14" d="M2229 4425c295,-86 442,-380 521,-649 -86,20 -300,194 -340,242 -82,98 -166,227 -181,407z"/>
  <path class="fil14" d="M1906 5628c-66,-66 -145,-140 -238,-177 28,256 225,592 443,678 8,-198 -51,-307 -138,-431 -32,-45 -30,-34 -67,-71z"/>
  <path class="fil14" d="M1651 6103c36,77 65,126 106,184 82,114 59,69 131,145 70,75 238,168 378,198 -60,-287 -317,-467 -615,-527z"/>
  <path class="fil14" d="M3197 1915c163,-27 294,-96 395,-178 78,-63 198,-197 237,-327 -126,26 -294,115 -388,176 -100,65 -219,174 -245,329z"/>
  <path class="fil14" d="M2901 2385c134,20 324,-57 422,-116 94,-56 234,-185 277,-289 -183,28 -462,113 -592,236 -49,47 -70,99 -107,169z"/>
  <path class="fil14" d="M2373 2502c-164,115 -148,583 -45,766 210,-163 132,-509 45,-766z"/>
  <path class="fil14" d="M1901 3662c-141,179 32,620 152,748 7,-8 11,-11 20,-25 17,-26 -8,16 11,-18 8,-15 15,-32 20,-49 37,-114 16,-218 -26,-324 -34,-86 -123,-270 -177,-332z"/>
  <path class="fil14" d="M1685 4851c-19,162 25,308 95,420 35,55 184,237 245,271 5,-9 6,-5 16,-31 86,-235 -231,-572 -356,-660z"/>
  <path class="fil14" d="M2106 3070c-74,88 -97,271 -74,406 17,101 78,295 131,361 208,-169 27,-582 -57,-768z"/>
  <path class="fil14" d="M1754 4257c-34,168 -24,288 44,430 29,61 155,264 218,303 43,-179 52,-267 -40,-427 -48,-84 -166,-260 -223,-307z"/>
  <path class="fil12" d="M5735 9786c55,-49 257,-62 364,-82 -51,-53 -266,-135 -306,-131 -54,6 -211,161 -235,199 43,93 151,235 214,287l-5 -96 292 22c-87,-75 -225,-108 -325,-199z"/>
  <path class="fil12" d="M4966 9703c34,24 289,60 360,79 -23,36 -44,48 -78,68 -89,54 -176,82 -251,136 94,25 187,-21 283,-10 19,42 11,39 2,87 74,-41 150,-195 216,-275 -24,-29 -209,-193 -232,-210 -82,10 -248,80 -301,125z"/>
  <path class="fil12" d="M4576 8954c30,85 93,93 117,192 63,266 93,175 529,360 -110,-196 -121,-200 -270,-328 -83,-71 -249,-191 -375,-224z"/>
  <path class="fil14" d="M2543 2688c97,-4 201,-225 185,-380l-34 -372c-200,147 -188,463 -151,752z"/>
  <path class="fil14" d="M2827 2169c112,-42 170,-161 186,-279 18,-134 3,-315 -4,-453l-41 35c-17,19 -13,16 -23,32 -143,220 -125,401 -118,665z"/>
  <path class="fil12" d="M5900 10722c-55,-6 -27,9 -57,-48 -85,-161 -187,-147 -350,-332 -24,191 -32,256 66,326 84,59 143,91 172,213l55 -38c42,-36 93,-77 114,-120z"/>
  <path class="fil5" d="M7120 6417l365 0c-27,-150 -214,-325 -369,-354l4 354z"/>
  <path class="fil12" d="M6605 8858c206,-39 330,-71 559,-43 93,11 173,31 256,60l164 71c6,2 21,10 44,-1 -36,-25 -83,-46 -124,-72 -169,-106 -491,-280 -685,-170 -76,44 -165,104 -215,155z"/>
  <path class="fil12" d="M3427 8960c87,-4 217,-107 476,-138 225,-27 340,6 545,40 -16,-24 -2,-7 -22,-26l-190 -129c-90,-50 -222,-21 -321,3 -222,54 -286,141 -422,211l-66 39z"/>
  <path class="fil5" d="M7118 7121c170,-34 313,-190 366,-344l-367 1 1 342z"/>
  <path class="fil12" d="M3960 9783c310,-129 466,-359 904,-376 -106,-27 -199,-79 -335,-81 -162,243 -497,198 -569,457z"/>
  <path class="fil5" d="M6739 6080c-127,49 -291,186 -314,337l315 -2 2 -50 1 -235 -3 -50z"/>
  <path class="fil5" d="M6425 6776c64,154 158,272 316,327l1 -327 -317 0z"/>
  <path class="fil12" d="M5374 9388c-3,115 41,263 -49,170 31,70 121,150 190,191 55,-28 133,-121 170,-183 -2,-3 -5,-7 -6,-9 -77,-121 -53,-135 -91,-191 -8,-12 -3,37 -16,-19 -1,-6 -6,-6 -13,-9l-18 280c-85,-20 -55,-154 -167,-230z"/>
  <path class="fil12" d="M8265 8562c29,28 74,88 96,145 75,199 -11,73 453,294 -48,-98 -386,-398 -548,-439z"/>
  <path class="fil12" d="M2258 9009c481,-238 373,-87 450,-292 28,-76 60,-96 90,-146 -184,56 -461,322 -540,438z"/>
  <path class="fil15" d="M2543 2688c-37,-289 -48,-605 151,-752l34 372c16,155 -88,376 -185,380zm-16 56c110,-56 205,-164 224,-344 11,-97 -11,-448 -46,-528 -80,75 -178,193 -209,358 -22,120 -5,395 30,514z"/>
  <path class="fil16" d="M2218 5087c1,-184 54,-313 142,-429 57,-75 208,-230 304,-273 -30,269 -199,621 -446,701zm-21 43c266,-104 487,-423 504,-806 -113,56 -288,215 -353,309 -85,123 -190,294 -150,498z"/>
  <path class="fil17" d="M1651 6103c298,60 556,240 615,527 -140,-30 -308,-123 -378,-198 -71,-76 -49,-31 -131,-145 -41,-58 -70,-107 -106,-184zm654 566c-32,-196 -137,-332 -243,-411 -113,-84 -285,-175 -461,-194 84,274 397,560 704,606z"/>
  <path class="fil16" d="M2618 7232c-157,-229 39,-664 153,-809 57,99 48,344 24,463 -28,139 -94,284 -177,345zm-13 56c104,-64 186,-254 216,-389 35,-157 36,-409 -37,-539 -3,3 -7,3 -8,8l-116 177c-122,255 -183,472 -55,743z"/>
  <path class="fil16" d="M2229 4425c15,-181 99,-310 181,-407 40,-48 254,-222 340,-242 -79,269 -226,563 -521,649zm-32 41c316,-84 522,-390 594,-745 -116,35 -328,197 -388,263 -101,111 -194,264 -206,482z"/>
  <path class="fil16" d="M2357 3685c37,-256 356,-491 620,-554 -90,260 -341,505 -620,554zm-38 31c128,-2 311,-92 404,-173 21,-19 26,-31 45,-51 45,-45 41,-31 80,-85 69,-97 147,-204 180,-323 -342,91 -647,292 -711,632z"/>
  <path class="fil16" d="M2383 6557c-83,-277 10,-595 199,-808 76,158 18,660 -199,808zm-6 49c101,-95 177,-181 227,-366 63,-230 22,-339 3,-559l-19 15c-165,154 -375,634 -211,909z"/>
  <path class="fil16" d="M3197 1915c25,-155 144,-265 245,-329 94,-61 261,-150 388,-176 -39,130 -159,265 -237,327 -101,82 -232,151 -395,178zm-37 33c333,-21 652,-312 718,-586 -216,52 -482,185 -623,355 -47,56 -79,143 -95,231z"/>
  <path class="fil16" d="M2373 2502c87,257 165,602 -45,766 -103,-183 -119,-651 45,-766zm-59 816c278,-105 156,-702 67,-881 -83,63 -157,264 -163,395 -5,121 42,395 96,486z"/>
  <path class="fil16" d="M2110 7329c257,25 603,216 685,470 -291,7 -584,-252 -685,-470zm728 499c-112,-299 -392,-488 -788,-539 19,51 104,167 133,200 170,198 349,351 655,339z"/>
  <path class="fil17" d="M2901 2385c37,-70 58,-122 107,-169 130,-122 409,-208 592,-236 -43,104 -183,232 -277,289 -98,59 -288,136 -422,116zm-40 36c193,-8 350,-46 491,-137 98,-64 261,-219 300,-342 -362,45 -712,180 -791,479z"/>
  <path class="fil16" d="M2256 5748c-39,-309 212,-666 367,-735 -2,169 -40,331 -108,462 -41,78 -177,283 -259,273zm-10 52c256,-135 400,-440 409,-848 -221,123 -470,480 -429,786 1,9 3,23 7,33 10,30 7,19 13,29z"/>
  <path class="fil16" d="M1668 5452c93,37 171,110 238,177 37,37 36,26 67,71 87,124 146,233 138,431 -218,-86 -415,-422 -443,-678zm461 727c103,-361 -344,-747 -498,-775 59,390 189,580 498,775z"/>
  <path class="fil16" d="M2589 3028c60,-240 387,-425 683,-475 -43,117 -168,249 -269,320 -109,77 -248,137 -414,155zm-37 30c331,-9 682,-268 775,-548 -284,46 -704,219 -775,548z"/>
  <path class="fil16" d="M1850 6645c138,25 311,118 395,190 98,83 195,178 245,342 -279,8 -564,-328 -640,-532zm679 568c-33,-151 -152,-319 -271,-405 -86,-62 -324,-199 -462,-203 158,286 314,578 733,608z"/>
  <path class="fil16" d="M1754 4257c56,47 174,223 223,307 92,160 83,248 40,427 -63,-39 -189,-243 -218,-303 -68,-142 -79,-262 -44,-430zm258 781c165,-201 3,-487 -125,-659 -37,-49 -91,-136 -137,-178 -67,86 -49,352 20,488 52,102 163,275 242,349z"/>
  <path class="fil15" d="M1901 3662c54,62 143,246 177,332 42,106 62,210 26,324 -5,17 -12,34 -20,49 -19,34 7,-8 -11,18 -10,14 -13,17 -20,25 -120,-127 -293,-568 -152,-748zm152 802c110,-135 128,-286 56,-472 -38,-97 -164,-347 -220,-400 -60,169 -94,288 -38,478 21,71 51,141 86,203 35,62 73,144 116,191z"/>
  <path class="fil16" d="M2106 3070c84,186 265,598 57,768 -53,-66 -114,-261 -131,-361 -23,-135 0,-318 74,-406zm42 824c113,-89 167,-244 125,-440 -20,-93 -120,-383 -165,-441 -90,79 -128,306 -106,452 22,145 94,307 146,429z"/>
  <path class="fil16" d="M1685 4851c125,88 441,425 356,660 -9,26 -10,22 -16,31 -61,-34 -210,-216 -245,-271 -70,-112 -114,-258 -95,-420zm354 742c136,-223 -56,-494 -216,-641 -57,-53 -95,-117 -158,-160 -67,333 116,555 325,765l49 35z"/>
  <path class="fil17" d="M2827 2169c-7,-264 -25,-446 118,-665 10,-16 6,-13 23,-32l41 -35c6,138 22,319 4,453 -16,119 -73,237 -186,279zm-28 44c312,-96 248,-499 236,-846 -87,48 -184,230 -210,333 -41,161 -26,342 -26,513z"/>
  <path class="fil12" d="M5564 10882c30,45 50,45 64,86 45,-25 45,-26 78,-65 -58,-122 -74,-158 -227,-246l-2 146c77,46 38,5 87,78z"/>
  <path class="fil12" d="M5475 11073c55,-24 89,-50 128,-86l-127 -137 -1 223z"/>
  <path class="fil3" d="M3194 9861c-51,55 -128,204 -157,279 35,-33 107,-88 156,-114l1 -165z"/>
  <path class="fil12" d="M5439 10871c-48,23 -26,3 -88,87l75 70c2,-3 8,4 12,7l1 -164z"/>
  <path class="fil12" d="M5475 11105c0,11 159,-131 334,-257 148,-107 394,-427 413,-614 7,-71 26,-138 14,-204 -31,-168 -1150,-351 -1304,-224 -73,60 -109,223 -75,442 26,168 127,343 302,531 112,119 192,192 317,327z"/>
  <path class="fil18" d="M5475 11111c-3,0 -4,-1 -5,-3 -66,-72 -120,-126 -173,-179 -46,-46 -91,-92 -143,-147 -88,-94 -158,-185 -208,-274 -51,-89 -82,-175 -96,-259 -17,-106 -17,-200 -4,-275 14,-80 42,-140 81,-171 17,-14 47,-25 84,-32 143,-26 418,-5 670,42 253,46 485,117 544,189 8,9 12,19 14,28 9,48 2,95 -6,144 -3,20 -6,40 -8,60 -9,87 -65,201 -139,310 -86,128 -195,249 -276,307 -95,69 -185,142 -248,193 -49,40 -82,66 -88,66l0 0zm128 -124l26 -18c-23,-59 -41,-33 -94,-133 -31,-17 -42,-23 -60,-37 1,-46 3,-93 4,-139 117,61 164,113 228,244l24 -23c-55,-208 -201,-178 -249,-321 3,-73 6,-145 10,-218 20,19 135,132 216,184 90,58 146,182 150,191 4,10 36,5 36,5 0,0 -65,-145 -177,-224 -101,-71 -203,-181 -222,-202 10,-166 22,-332 38,-497 49,7 98,15 147,24 251,46 481,116 538,186 7,8 11,16 12,24 9,46 1,93 -6,141 -3,20 -6,40 -8,61 -9,85 -65,198 -137,306 -86,127 -194,247 -274,305 -95,69 -185,142 -248,193 -43,35 -73,59 -80,64l-9 -9c1,-80 3,-160 5,-241 26,23 130,136 130,136zm-104 -1193c-19,133 -32,267 -40,401 -13,25 -38,72 -58,92 -18,18 -81,69 -167,126 -45,47 -37,87 -123,198 -5,13 -8,27 -8,42 80,-29 114,-169 145,-197 27,-25 169,-129 206,-153 -4,93 -6,185 -7,279 -19,92 -75,46 -179,138 -24,25 -32,44 -37,80 63,-8 63,-100 215,-129 0,49 0,98 0,148 -71,52 -70,26 -105,111l12 29c49,-59 27,-62 93,-90 0,66 1,133 1,199 -53,-56 -98,-101 -142,-146 -46,-46 -91,-92 -143,-147 -88,-94 -157,-184 -207,-272 -50,-88 -82,-173 -94,-256 -16,-105 -16,-198 -4,-272 13,-78 40,-135 77,-165 16,-13 44,-23 80,-30 108,-20 292,-12 485,13z"/>
  <path class="fil1" d="M9728 5637c-15,68 -182,89 -373,46 -190,-43 -332,-133 -317,-201 8,-34 27,-16 40,-73 15,-66 80,-107 146,-92 13,3 25,8 36,15 40,-67 106,-107 176,-91 71,16 139,87 138,176 25,-13 47,-26 93,-6 46,20 82,80 67,146 -10,46 -2,61 -7,81z"/>
  <path class="fil2" d="M9747 5641c-10,43 -61,70 -137,79 -69,9 -161,3 -258,-19 -97,-22 -183,-56 -242,-94 -64,-41 -99,-88 -90,-130 5,-20 12,-27 21,-35 6,-5 13,-12 19,-38 9,-38 32,-69 62,-88 30,-19 68,-27 106,-18 8,2 15,4 22,7l4 2c21,-31 47,-55 77,-70 33,-17 71,-23 110,-14 41,9 82,35 110,72 21,26 35,58 40,93 21,-8 45,-10 84,6 28,12 53,37 68,69 13,28 18,63 10,98 -6,25 -5,40 -5,52 0,10 1,18 -2,28zm-142 42c59,-7 99,-25 105,-50 1,-6 1,-12 1,-19 0,-14 -1,-32 6,-62 6,-27 2,-53 -8,-74 -11,-23 -29,-42 -48,-50 -37,-16 -55,-6 -76,5l-29 15 1 -32c1,-38 -13,-72 -34,-99 -23,-30 -56,-51 -89,-59 -30,-7 -59,-2 -85,11 -28,14 -53,39 -71,71l-10 16 -16 -10c-5,-3 -10,-5 -15,-7 -5,-2 -11,-4 -16,-5 -28,-6 -56,-1 -78,13 -22,14 -39,37 -45,64 -9,38 -20,49 -31,58 -4,4 -7,7 -9,15 -6,25 23,58 73,90 56,35 137,68 230,89 93,21 180,27 246,19z"/>
  <path class="fil3" d="M9258 5579c-16,-88 -97,-152 -210,-175 -90,177 -3,486 242,549 256,41 436,-152 472,-390 -66,-35 -195,-34 -254,63 -7,-137 -186,-188 -249,-47z"/>
  <path class="fil2" d="M9239 5582c-7,-39 -28,-73 -61,-100 -31,-26 -72,-46 -120,-57 -6,14 -12,30 -16,45 -19,76 -13,165 19,246 32,80 88,152 168,193 20,10 42,19 65,25l3 1c120,18 221,-18 298,-86 75,-67 126,-165 145,-274 -33,-13 -78,-18 -120,-7 -38,9 -74,31 -97,69l-32 52 -3 -61c-2,-36 -17,-65 -40,-85 -15,-13 -33,-22 -52,-26 -19,-4 -38,-3 -56,4 -26,10 -50,31 -65,67l-25 56 -11 -61zm-36 -129c27,22 48,49 61,79 18,-23 40,-39 64,-48 25,-9 52,-11 77,-6 25,5 49,17 69,34 20,17 36,41 45,68 27,-27 59,-43 93,-51 57,-14 119,-5 159,16l12 6 -3 19c-19,121 -75,231 -159,305 -85,75 -197,115 -329,95 -2,0 -4,-1 -6,-1 -26,-7 -51,-16 -73,-28 -89,-45 -151,-124 -186,-213 -34,-88 -42,-186 -20,-269 6,-24 14,-46 25,-66l7 -13 14 3c61,12 113,36 152,68z"/>
  <path class="fil1" d="M9581 6285c-20,67 -188,77 -375,22 -187,-55 -323,-154 -303,-221 10,-33 28,-14 44,-71 19,-65 87,-102 151,-83 13,4 25,10 35,17 44,-65 112,-100 182,-79 70,20 134,96 127,185 26,-12 49,-23 93,0 44,23 76,85 57,150 -13,45 -6,60 -12,80z"/>
  <path class="fil2" d="M9599 6290c-12,42 -66,66 -142,70 -70,4 -161,-7 -257,-36 -96,-28 -179,-68 -235,-109 -62,-45 -93,-94 -81,-136 6,-20 14,-27 23,-34 6,-5 14,-11 21,-37 11,-37 36,-67 68,-84 32,-17 70,-22 107,-12 7,2 15,5 21,8l4 2c23,-29 51,-52 81,-65 35,-15 72,-19 111,-7 41,12 79,41 106,79 19,28 32,60 34,96 22,-7 46,-7 83,12 27,14 51,41 63,73 11,29 14,64 4,99 -7,25 -8,40 -8,52 0,10 -1,18 -4,29zm-144 33c60,-3 100,-18 108,-43 2,-6 2,-12 2,-19 0,-14 1,-32 10,-61 8,-26 6,-52 -3,-74 -9,-24 -26,-43 -45,-53 -36,-19 -55,-10 -76,0l-30 14 3 -32c3,-37 -8,-72 -28,-101 -22,-31 -53,-55 -85,-64 -29,-9 -59,-6 -85,6 -29,13 -55,36 -76,66l-11 16 -16 -11c-5,-3 -9,-6 -14,-8 -5,-2 -10,-4 -16,-6 -27,-8 -55,-4 -79,8 -23,13 -41,34 -49,61 -11,38 -23,47 -34,56 -4,3 -8,6 -10,15 -7,25 19,59 67,94 53,39 132,76 224,103 92,27 178,38 244,34z"/>
  <path class="fil3" d="M9115 6197c-10,-89 -87,-158 -199,-188 -102,171 -34,485 207,563 252,57 445,-124 496,-359 -64,-39 -193,-46 -258,46 2,-137 -174,-200 -246,-62z"/>
  <path class="fil2" d="M9096 6199c-4,-39 -24,-75 -54,-104 -29,-28 -69,-50 -117,-65 -7,14 -13,29 -18,44 -24,74 -23,164 3,247 26,82 78,157 155,203 19,12 41,21 63,29l3 1c118,25 222,-4 303,-67 79,-62 137,-157 163,-265 -32,-15 -76,-23 -119,-15 -38,7 -76,26 -101,63l-35 50 1 -61c1,-36 -13,-66 -34,-87 -14,-14 -31,-24 -50,-29 -18,-5 -38,-5 -57,1 -26,8 -51,28 -70,63l-29 55 -7 -61zm-28 -131c25,24 44,52 55,83 20,-22 43,-36 67,-44 26,-8 52,-8 77,-1 25,7 48,20 67,39 19,19 33,43 40,71 28,-25 62,-39 96,-45 58,-10 119,3 158,26l12 7 -4 19c-27,120 -90,225 -178,294 -89,70 -204,102 -334,74l-6 -2c-26,-8 -49,-19 -71,-32 -86,-51 -143,-134 -172,-224 -29,-90 -30,-188 -3,-270 7,-23 17,-45 29,-64l7 -12 14 4c60,16 110,43 147,78z"/>
  <path class="fil1" d="M9340 6892c-31,63 -198,44 -373,-42 -175,-86 -292,-207 -262,-269 15,-31 30,-10 56,-62 30,-60 103,-85 163,-56 12,6 23,14 32,23 54,-56 127,-79 193,-47 65,32 115,117 93,203 27,-7 52,-14 92,16 40,30 61,97 31,157 -21,42 -16,58 -25,77z"/>
  <path class="fil2" d="M9323 6884c3,-5 4,-11 5,-18 3,-14 6,-31 20,-59 12,-25 14,-51 10,-74 -5,-25 -18,-47 -35,-60 -32,-24 -52,-19 -75,-13l-32 8 8 -31c9,-36 4,-73 -10,-104 -16,-35 -43,-63 -73,-78 -27,-13 -57,-16 -85,-9 -31,8 -60,26 -86,52l-13 14 -14 -14c-4,-4 -8,-7 -12,-10 -4,-3 -9,-6 -15,-9l0 0c-25,-12 -54,-13 -79,-5 -25,8 -46,26 -59,52l0 1c-17,35 -31,42 -43,49 -5,2 -9,5 -13,13 -11,23 8,62 50,104 46,47 117,97 202,139l1 1c86,42 169,67 234,75 59,7 102,-1 113,-24zm32 20c-21,37 -76,50 -149,42 -69,-8 -157,-35 -247,-78l-1 -1c-89,-44 -164,-97 -213,-147 -53,-55 -76,-108 -57,-147 9,-19 18,-24 28,-29 7,-4 15,-9 27,-33l0 -1c17,-34 47,-59 80,-71 34,-12 72,-10 107,7l0 0c7,3 13,7 20,12l3 2c27,-25 59,-42 91,-50 37,-9 75,-6 110,12 38,19 71,53 91,96 14,30 21,65 18,100 23,-3 47,0 80,25 25,19 43,49 50,83 6,31 3,65 -13,98 -11,23 -14,38 -17,50 -2,10 -4,18 -8,28l-2 3z"/>
  <path class="fil3" d="M8896 6727c5,-89 -59,-171 -164,-219 -129,151 -116,472 109,590 239,99 460,-47 549,-270 -56,-49 -182,-78 -262,2 25,-134 -137,-226 -232,-103z"/>
  <path class="fil2" d="M8877 6726c2,-40 -11,-78 -36,-111 -24,-32 -60,-61 -104,-84 -9,12 -18,26 -26,40 -37,69 -51,158 -39,244 12,86 50,168 118,226 17,15 36,28 58,39l3 1c112,45 220,34 310,-15 89,-48 161,-132 205,-233 -29,-21 -71,-35 -115,-35 -39,0 -79,13 -110,44l-43 43 11 -60c7,-36 -2,-68 -19,-92 -11,-16 -27,-29 -44,-37 -17,-8 -37,-11 -56,-9 -27,3 -55,19 -79,50l-38 49 4 -62zm-5 -134c21,28 35,59 41,91 23,-19 48,-29 73,-32 27,-3 53,1 76,12 23,11 44,28 59,49 15,22 25,48 28,77 32,-20 68,-28 103,-28 59,0 117,23 151,53l10 9 -7 18c-47,113 -127,207 -225,260 -100,54 -218,66 -342,17l-6 -3c-24,-12 -45,-27 -65,-44 -76,-65 -118,-156 -131,-250 -13,-94 3,-191 43,-267 11,-21 24,-41 39,-59l9 -11 13 6c56,26 101,61 132,102z"/>
  <path class="fil1" d="M9035 7470c-36,60 -201,27 -368,-73 -167,-100 -274,-230 -238,-290 18,-30 31,-7 61,-57 35,-58 109,-77 167,-42 12,7 22,16 30,25 59,-52 134,-68 196,-31 62,37 105,127 76,210 28,-5 53,-10 90,24 37,33 53,102 18,159 -24,41 -21,57 -32,75z"/>
  <path class="fil2" d="M9019 7460c3,-5 5,-11 7,-18 4,-13 9,-30 25,-57 14,-24 19,-49 16,-73 -3,-26 -14,-49 -30,-63 -30,-27 -51,-23 -73,-19l-32 6 11 -30c12,-35 10,-72 -2,-105 -13,-36 -37,-66 -66,-83 -26,-16 -55,-20 -84,-16 -31,5 -62,21 -90,45l-15 13 -12 -15c-3,-4 -7,-8 -11,-11 -4,-4 -9,-7 -14,-10l0 0c-24,-15 -52,-18 -78,-12 -25,6 -49,22 -63,47l0 0c-20,34 -35,40 -47,46 -5,2 -9,4 -14,12 -13,22 3,62 41,108 42,51 109,107 190,156l0 0c82,49 163,81 227,94 59,12 101,8 115,-15zm31 22c-24,36 -80,44 -153,30 -68,-14 -154,-48 -239,-99l0 0c-86,-51 -156,-110 -200,-164 -48,-59 -67,-114 -45,-152 11,-18 20,-22 31,-27 7,-3 16,-7 30,-30l0 0c20,-33 52,-55 86,-64 35,-9 73,-4 106,16l0 0c7,4 13,8 19,13l3 3c29,-22 62,-37 95,-42 37,-6 75,0 109,21 36,22 67,59 82,103 11,31 15,66 9,101 23,-1 46,4 77,32 23,21 39,52 43,87 4,31 -2,65 -21,96 -13,22 -18,37 -21,48 -3,10 -5,18 -11,27l-2 2z"/>
  <path class="fil3" d="M8606 7268c13,-89 -44,-175 -145,-232 -141,140 -155,460 59,597 230,119 462,-8 570,-223 -52,-54 -175,-93 -261,-20 37,-132 -118,-237 -222,-122z"/>
  <path class="fil2" d="M8587 7266c6,-39 -4,-78 -26,-114 -21,-34 -54,-66 -97,-92 -10,12 -20,24 -29,38 -42,66 -64,153 -59,240 5,86 36,172 99,236 16,16 34,31 54,43l3 2c108,54 216,52 310,11 92,-40 172,-118 224,-215 -27,-23 -68,-41 -112,-45 -39,-3 -80,6 -114,35l-47 40 16 -59c10,-35 4,-68 -11,-93 -10,-17 -24,-31 -41,-41 -16,-9 -35,-14 -55,-14 -28,1 -57,14 -83,43l-41 46 9 -61zm6 -134c19,30 30,62 33,94 24,-17 50,-25 75,-26 27,-1 53,6 75,18 22,13 41,31 55,54 13,23 21,50 21,79 34,-17 70,-22 104,-20 59,4 114,32 146,65l9 10 -9 17c-56,109 -144,196 -246,240 -104,45 -223,48 -342,-12l-6 -3c-23,-14 -43,-31 -61,-49 -70,-71 -105,-165 -110,-260 -5,-95 19,-190 65,-262 13,-20 28,-39 44,-55l10 -10 12 7c54,31 96,69 123,112z"/>
  <path class="fil1" d="M8742 8015c-38,63 -210,29 -385,-76 -175,-105 -286,-241 -249,-303 19,-31 32,-7 64,-60 36,-60 114,-80 175,-44 12,7 23,16 31,27 62,-54 140,-71 205,-32 65,39 110,132 80,220 29,-5 55,-10 94,25 39,35 55,106 19,167 -25,42 -22,59 -33,78z"/>
  <path class="fil2" d="M8761 8020l-3 5c-23,39 -83,49 -161,34 -72,-14 -161,-50 -250,-103l0 0c-89,-54 -163,-115 -209,-172 -50,-61 -70,-119 -46,-158 11,-19 21,-23 32,-28 8,-3 17,-8 32,-32l0 0c21,-35 54,-58 90,-67 36,-9 76,-4 110,16l0 0c7,4 13,9 19,14l4 3c31,-24 65,-39 100,-45 39,-6 78,0 113,22 38,23 69,62 86,107 12,33 16,70 9,106 24,-1 49,4 81,33 24,21 40,54 44,90 4,32 -3,68 -22,100 -14,23 -18,38 -22,50 -2,8 -4,15 -8,23zm-156 1c61,12 106,8 121,-15l0 -1c3,-5 5,-12 7,-19 4,-14 9,-32 26,-59 15,-25 20,-52 17,-77 -3,-27 -15,-51 -32,-66 -32,-28 -53,-24 -77,-20l-32 6 11 -31c13,-37 10,-76 -2,-110 -14,-38 -39,-69 -70,-88 -28,-17 -58,-21 -88,-17 -33,5 -65,22 -94,47l-14 13 -13 -15c-4,-4 -8,-9 -12,-12 -4,-4 -9,-7 -14,-10l0 0c-26,-15 -55,-19 -82,-12 -27,7 -51,24 -66,49l0 0c-21,35 -36,42 -49,47 -5,2 -10,4 -15,12 -14,24 3,66 43,114 44,53 114,112 199,163l0 0c86,51 170,85 238,98z"/>
  <path class="fil3" d="M8294 7804c13,-93 -46,-183 -152,-243 -148,146 -162,481 61,624 240,124 483,-9 595,-233 -54,-56 -183,-97 -273,-21 38,-138 -123,-248 -232,-128z"/>
  <path class="fil2" d="M8275 7802c6,-41 -4,-82 -28,-119 -23,-36 -57,-69 -102,-97 -11,12 -22,26 -31,40 -44,69 -67,160 -62,251 5,90 38,180 104,247 17,17 35,32 56,45l4 2c113,57 226,55 324,12 97,-42 180,-123 235,-226 -28,-24 -72,-44 -118,-47 -41,-3 -84,7 -120,37l-47 39 16 -59c10,-37 4,-71 -12,-98 -11,-18 -26,-33 -43,-43 -17,-10 -37,-15 -58,-14 -29,1 -60,15 -87,45l-42 46 9 -61zm4 -139c20,31 31,65 34,99 26,-18 53,-26 80,-28 28,-1 55,6 78,19 23,13 43,33 57,56 14,24 22,53 22,83 35,-18 73,-24 110,-21 61,5 119,34 152,68l9 10 -9 17c-59,114 -150,204 -257,251 -108,47 -233,50 -357,-13l-6 -3c-24,-15 -45,-32 -64,-51 -73,-74 -109,-172 -115,-271 -5,-99 19,-198 68,-273 14,-21 29,-41 46,-57l10 -10 12 7c56,32 100,72 128,117z"/>
  <path class="fil12" d="M6066 9267c68,-118 817,-1035 1492,-1199 674,-164 1376,189 1421,1084 0,0 -633,-639 -1499,-128 -866,511 -1414,244 -1414,244z"/>
  <path class="fil4" d="M6045 9255c44,-76 367,-480 771,-804 231,-185 488,-345 736,-406 86,-21 173,-34 258,-38 260,-13 511,50 716,192 205,142 363,361 436,660 22,90 36,188 41,292l3 62 -44 -44c-2,-2 -620,-626 -1470,-125 -877,517 -1435,245 -1436,245l-24 -11 13 -23zm2056 -789c19,6 50,14 83,29 114,40 227,99 345,181 122,85 276,239 418,384 -7,-67 -18,-130 -33,-190 -70,-286 -220,-496 -416,-631 -196,-135 -437,-196 -686,-183 -83,4 -166,16 -249,37 -85,21 -171,54 -257,95l1 1c-20,9 -68,35 -111,150 -31,83 -57,151 -83,198 14,-4 28,-8 42,-11 88,-22 171,-41 251,-56 76,-31 139,-140 174,-200 5,-9 10,-17 14,-25 19,-33 68,-70 122,-101 28,-16 68,-54 166,-43 5,46 -103,62 -142,85 -48,27 -90,59 -105,84 -4,7 -9,15 -14,24 -26,46 -63,111 -114,159 60,-9 119,-16 176,-19 51,-3 101,-4 150,-2 50,-13 103,-85 138,-138 13,-20 26,-39 38,-54 27,-34 87,-59 149,-73 30,-6 190,-33 167,25 -15,36 -89,9 -157,23 -53,11 -101,31 -121,55 -10,13 -22,31 -35,50 -27,41 -57,87 -94,117 62,6 122,17 182,33l1 -3zm718 533c-111,-112 -224,-218 -318,-284 -60,-42 -119,-77 -177,-107l0 0c46,67 60,109 84,220 171,37 311,107 411,170zm-457 -180c-6,-59 -26,-107 -64,-162 -46,-67 -117,-108 -167,-129l-4 -1c-142,-44 -286,-57 -442,-47 -12,1 -24,2 -36,3 3,4 6,8 9,12 50,66 156,185 278,212 161,35 160,48 160,96 94,-5 183,2 265,17zm-313 -14c0,-34 3,-24 -122,-51 -137,-30 -252,-159 -306,-230 -10,-14 -19,-26 -25,-35l-1 -1c-132,15 -273,45 -429,84 -67,17 -128,37 -184,59 157,16 469,73 690,268 133,-55 259,-84 377,-94zm-426 116c-273,-227 -678,-246 -735,-248 -459,226 -534,614 -535,615l-48 -10c0,-2 97,-501 721,-716l0 0c38,-15 72,-104 124,-242 10,-26 19,-47 29,-66 -114,67 -227,147 -334,233 -367,295 -666,655 -744,767 116,44 619,187 1365,-253 53,-31 104,-58 155,-81z"/>
  <path class="fil12" d="M6521 8923c-530,189 -1044,809 -917,998 80,119 682,304 682,304l547 -213c452,-66 828,-203 1284,210 46,-442 -13,-673 -95,-803 -379,-602 -1012,-669 -1501,-495z"/>
  <path class="fil4" d="M5752 9478c110,-138 263,-281 432,-396 106,-71 219,-131 332,-172 268,-95 578,-119 868,-24 244,81 473,246 648,524 42,66 78,158 97,289 19,130 22,299 0,522l-2 24 -18 -16c-392,-355 -726,-298 -1101,-235 -56,10 -113,19 -172,28l-545 213 -4 2 -4 -1c-2,-1 -606,-186 -689,-309 -5,-8 -10,-17 -13,-26 -46,-128 93,-317 171,-422zm47 -19c165,-66 334,-118 497,-155 34,-128 103,-266 177,-351 -94,38 -187,90 -276,149 -154,103 -293,231 -399,356zm744 -532c-77,101 -159,253 -195,365 54,-11 107,-21 159,-29l1 -2c0,0 2,1 4,2 61,-9 121,-17 178,-21l-2 -2c0,0 128,-102 161,-141 11,-13 10,-40 17,-51 16,-24 32,-48 78,-89 46,-41 119,-60 168,-73 11,-3 46,-14 67,-21 -217,-32 -438,-5 -636,63zm714 -49c-31,13 -117,50 -133,54 -44,12 -110,42 -146,75 -41,36 -57,45 -71,67 -9,13 -12,33 -25,48 -23,26 -79,79 -118,114 90,-4 174,-3 249,5 101,-27 148,-64 204,-107 27,-21 55,-43 93,-67 73,-47 210,-57 256,-61 4,0 13,-1 21,-2 -68,-39 -138,-71 -210,-94 -39,-13 -79,-24 -119,-32zm369 151c-17,7 -55,26 -57,26 -43,3 -171,13 -233,53 -35,22 -63,44 -89,65 -41,32 -78,61 -133,85 138,30 255,73 355,124 39,-2 97,-6 127,-11 40,-6 82,-12 111,-12 55,0 252,59 312,78 -3,-4 -5,-8 -8,-12 -110,-175 -241,-304 -384,-395zm421 465c-35,-11 -286,-87 -341,-87 -27,0 -66,6 -104,12 -19,3 -37,6 -54,8 369,227 452,561 473,601l-27 -53c-43,-70 -92,-137 -146,-202 8,29 14,61 19,91 5,32 16,39 16,63 0,30 2,61 -12,70 -4,3 -19,14 -29,18 86,42 174,100 265,180 20,-208 16,-368 -2,-492 -13,-86 -33,-154 -57,-209zm-212 519c0,-38 0,-58 0,-90 0,-21 -13,-22 -17,-52 -10,-70 -31,-148 -54,-173l9 -8c-119,-124 -260,-231 -425,-305 44,76 116,202 151,265 62,75 43,134 40,191l-65 83c119,5 238,30 361,89zm-368 -89c8,-41 29,-177 -11,-250 -45,-82 -159,-279 -182,-319 -57,-21 -116,-39 -179,-52 -136,-28 -319,-28 -524,-1 19,18 39,42 56,74 20,39 97,70 182,104 70,28 145,58 204,99 127,86 128,313 126,369 111,-17 219,-29 328,-25zm-358 29c-2,-53 -16,-260 -123,-333 -56,-38 -128,-67 -195,-94 -95,-38 -180,-72 -208,-127 -26,-52 -62,-77 -80,-87 -244,39 -513,114 -768,224 -107,144 -162,277 -134,355 3,8 6,15 10,21 74,110 619,282 672,298l543 -212 1 -1 1 0c59,-9 116,-18 172,-28 36,-6 72,-12 107,-18z"/>
  <path class="fil5" d="M7111 9788c-518,424 -1167,743 -1587,-4 642,-661 993,-275 1587,4z"/>
  <path class="fil2" d="M6130 9694c2,5 0,9 -6,12 -17,8 -87,20 -160,33 -88,15 -181,31 -188,40 0,1 5,5 13,12 31,25 104,68 170,106 61,35 116,67 125,78 4,5 3,9 -2,13 -18,14 -158,2 -239,-4 -28,-2 -49,-4 -53,-4l1 11c1,25 14,74 23,113l6 24 -13 -9c-51,-36 -101,-81 -148,-135 -47,-55 -93,-120 -136,-196l-2 -4 3 -3c48,-50 95,-94 141,-132 46,-38 90,-71 133,-99l1 -1 2 0c5,0 10,0 13,0 4,0 7,1 9,2l13 5c46,15 174,58 291,137l1 1 1 1zm-168 33c67,-11 131,-22 152,-30 -113,-75 -236,-116 -281,-131l-14 -5c-1,0 -3,-1 -6,-1l-10 0c-42,27 -85,60 -130,97 -44,37 -90,80 -137,128 42,74 86,137 132,190 43,50 87,91 133,124 -10,-38 -21,-85 -22,-110 -1,-14 2,-22 10,-23 5,0 26,1 55,4 75,6 205,17 228,8 -12,-11 -63,-41 -120,-73 -66,-38 -140,-81 -172,-107 -14,-12 -21,-22 -15,-28 10,-13 106,-29 195,-44z"/>
  <path class="fil12" d="M6125 9697c8,16 -335,56 -353,78 -18,22 288,177 308,203 20,26 -269,-5 -289,-4 -15,1 7,85 21,140 -102,-71 -197,-178 -282,-329 97,-99 187,-175 273,-230 10,0 17,0 20,1 27,10 173,52 303,141z"/>
  <path class="fil4" d="M7113 9792c-260,213 -552,399 -833,438 -281,40 -550,-68 -761,-443l-2 -3 3 -3c539,-555 874,-376 1316,-139 87,47 178,95 276,141l7 3 -6 5zm-834 429c276,-39 565,-222 822,-431 -95,-45 -184,-93 -269,-138 -438,-235 -770,-412 -1302,134 208,368 473,474 750,435z"/>
  <polygon class="fil19" points="6467,1932 6473,2025 6485,1932 6485,2026 6502,1934 6497,2027 6520,1937 6509,2030 6537,1941 6521,2033 6554,1946 6532,2037 6571,1952 6543,2041 6588,1959 6554,2046 6604,1968 6565,2052 6619,1977 6575,2059 6634,1987 6585,2066 6648,1998 6594,2074 6661,2011 6603,2083 6674,2023 6612,2092 6686,2037 6619,2102 6697,2052 6626,2112 6707,2067 6633,2122 6716,2083 6639,2133 6724,2099 6644,2144 6731,2116 6648,2156 6737,2133 6652,2168 6742,2150 6655,2180 6746,2168 6657,2192 6749,2186 6659,2204 6750,2205 6660,2217 6751,2223 6660,2229 6750,2241 6659,2242 6749,2259 6657,2254 6746,2277 6655,2266 6742,2295 6652,2278 6737,2313 6648,2290 6731,2330 6644,2302 6724,2347 6639,2313 6716,2363 6633,2324 6707,2379 6626,2334 6697,2394 6619,2344 6686,2409 6612,2354 6674,2422 6603,2363 6661,2435 6594,2371 6648,2447 6585,2379 6634,2459 6575,2387 6619,2469 6565,2393 6604,2478 6554,2399 6588,2486 6543,2405 6571,2494 6532,2409 6554,2500 6521,2413 6537,2505 6509,2416 6520,2509 6497,2418 6502,2512 6485,2420 6485,2514 6473,2421 6467,2514 6461,2421 6449,2514 6448,2420 6431,2512 6436,2418 6413,2509 6425,2416 6396,2505 6413,2413 6379,2500 6401,2409 6362,2494 6390,2405 6346,2486 6379,2399 6330,2478 6368,2393 6314,2469 6358,2387 6300,2459 6348,2379 6286,2447 6339,2371 6272,2435 6330,2363 6260,2422 6322,2354 6248,2409 6314,2344 6237,2394 6307,2334 6227,2379 6300,2324 6218,2363 6295,2313 6210,2347 6289,2302 6202,2330 6285,2290 6196,2313 6281,2278 6191,2295 6278,2266 6188,2277 6276,2254 6185,2259 6274,2242 6183,2241 6274,2229 6182,2223 6274,2217 6183,2205 6274,2204 6185,2186 6276,2192 6188,2168 6278,2180 6191,2150 6281,2168 6196,2133 6285,2156 6202,2116 6289,2144 6210,2099 6295,2133 6218,2083 6300,2122 6227,2067 6307,2112 6237,2052 6314,2102 6248,2037 6322,2092 6259,2023 6330,2083 6272,2011 6339,2074 6286,1998 6348,2066 6300,1987 6358,2059 6314,1977 6368,2052 6330,1968 6379,2046 6346,1959 6390,2041 6362,1952 6401,2037 6379,1946 6413,2033 6396,1941 6425,2030 6413,1937 6436,2027 6431,1934 6448,2026 6449,1932 6461,2025 "/>
  <path class="fil20" d="M6469 1931l5 74 9 -74 4 -28 0 29 0 74 14 -73 5 -28 -2 28 -4 74 18 -72 7 -28 -3 28 -9 74 23 -71 9 -27 -5 28 -13 73 27 -69 10 -26 -7 28 -18 72 31 -67 12 -26 -8 27 -22 71 35 -65 13 -25 -10 26 -26 69 39 -63 15 -24 -12 26 -31 67 43 -60 16 -23 -13 25 -35 65 46 -57 18 -22 -15 24 -39 63 50 -54 19 -21 -16 23 -43 60 53 -51 20 -19 -17 22 -46 58 56 -47 21 -18 -19 21 -50 55 59 -44 22 -16 -20 19 -53 51 62 -40 23 -15 -21 18 -56 48 64 -36 24 -13 -22 17 -59 44 66 -32 25 -12 -23 15 -61 40 68 -27 25 -10 -24 14 -64 36 69 -23 26 -9 -25 12 -66 32 71 -18 26 -7 -25 10 -68 28 72 -14 27 -5 -26 9 -69 23 72 -9 27 -3 -26 7 -71 19 73 -4 27 -2 -27 5 -72 14 73 0 27 0 -27 4 -72 10 73 5 27 2 -27 2 -73 5 72 10 27 4 -27 0 -73 0 72 14 27 5 -27 -2 -73 -4 71 19 26 7 -27 -3 -72 -9 69 23 26 9 -27 -5 -72 -14 68 28 25 10 -26 -7 -71 -18 66 32 25 12 -26 -9 -69 -23 64 36 24 14 -25 -10 -68 -27 61 40 23 15 -25 -12 -66 -32 59 44 22 17 -24 -13 -64 -36 56 48 21 18 -23 -15 -62 -40 53 51 20 19 -22 -16 -59 -44 50 55 19 21 -21 -18 -56 -47 46 58 17 22 -20 -19 -53 -51 43 60 16 23 -19 -21 -50 -54 39 63 15 24 -18 -22 -46 -57 35 65 13 25 -16 -23 -43 -60 31 67 12 26 -15 -24 -39 -63 26 69 10 26 -13 -25 -35 -65 22 71 8 27 -12 -26 -31 -67 18 72 7 28 -10 -26 -27 -69 13 73 5 28 -9 -27 -23 -71 9 74 3 28 -7 -28 -18 -72 4 74 2 28 -5 -28 -14 -73 0 74 0 29 -4 -28 -9 -74 -5 74 -2 29 -2 -29 -5 -74 -9 74 -4 28 0 -29 0 -74 -14 73 -5 28 2 -28 4 -74 -18 72 -7 28 3 -28 9 -74 -23 71 -9 27 5 -28 13 -73 -27 69 -10 26 7 -28 18 -72 -31 67 -12 26 8 -27 22 -71 -35 65 -13 25 10 -26 26 -69 -39 63 -15 24 12 -26 31 -67 -43 60 -16 23 13 -25 35 -65 -46 57 -18 22 15 -24 39 -63 -50 54 -19 21 16 -23 43 -60 -53 51 -20 19 17 -22 46 -58 -56 47 -21 18 19 -21 50 -55 -59 44 -22 16 20 -19 53 -51 -62 40 -23 15 21 -18 56 -48 -64 36 -24 13 22 -17 59 -44 -66 32 -25 12 23 -15 61 -40 -68 27 -25 10 24 -14 64 -36 -69 23 -26 9 25 -12 66 -32 -71 18 -26 7 25 -10 68 -28 -72 14 -27 5 26 -9 69 -23 -72 9 -27 3 26 -7 71 -19 -73 4 -27 2 27 -5 72 -14 -73 0 -27 0 27 -4 72 -10 -73 -5 -27 -2 27 -2 73 -5 -72 -10 -27 -4 27 0 73 0 -72 -14 -27 -5 27 2 73 4 -71 -19 -26 -7 27 3 72 9 -69 -23 -26 -9 27 5 72 14 -68 -28 -25 -10 26 7 71 18 -66 -32 -25 -12 26 9 69 23 -64 -36 -24 -14 25 10 68 27 -61 -40 -23 -15 25 12 66 32 -59 -44 -22 -17 24 13 64 36 -56 -48 -21 -18 23 15 62 40 -53 -51 -20 -19 22 16 59 44 -50 -55 -19 -21 21 18 56 47 -46 -58 -17 -22 20 19 53 51 -43 -60 -16 -23 19 21 50 54 -39 -63 -15 -24 18 22 46 57 -35 -65 -13 -25 16 23 43 60 -31 -67 -12 -26 15 24 39 63 -26 -69 -10 -26 13 25 35 65 -22 -71 -8 -27 12 26 31 67 -18 -72 -7 -28 10 26 27 69 -13 -73 -5 -28 9 27 23 71 -9 -74 -3 -28 7 28 18 72 -4 -74 -2 -28 5 28 14 73 0 -74 0 -29 4 28 9 74 5 -74 2 -29 2 29zm2 94l-4 -65 -4 65 -1 19 -2 -19 -8 -65 0 65 0 19 -4 -19 -12 -64 4 65 1 19 -5 -19 -16 -63 8 65 2 19 -6 -18 -20 -62 12 64 3 19 -7 -18 -24 -60 16 63 5 19 -8 -17 -27 -59 19 62 6 18 -9 -17 -31 -57 23 61 7 18 -10 -16 -34 -55 27 59 8 17 -11 -16 -38 -53 30 57 9 17 -12 -15 -41 -50 34 55 10 16 -13 -14 -44 -47 37 53 11 15 -14 -13 -47 -45 41 51 12 15 -14 -12 -49 -42 44 48 13 14 -15 -11 -52 -38 47 45 13 13 -16 -10 -54 -35 49 42 14 12 -16 -9 -56 -31 52 39 15 11 -17 -8 -58 -28 54 35 16 10 -17 -7 -60 -24 56 32 16 9 -18 -6 -61 -20 58 28 17 8 -18 -5 -62 -16 60 24 17 7 -18 -3 -63 -12 61 21 17 6 -18 -2 -64 -8 62 17 18 5 -18 -1 -64 -4 63 13 18 4 -18 0 -64 0 64 8 18 2 -18 1 -64 4 64 4 18 1 -18 2 -64 8 64 0 18 0 -18 4 -63 13 64 -4 18 -1 -18 5 -62 17 64 -8 18 -2 -17 6 -61 21 63 -12 18 -3 -17 7 -60 24 62 -16 18 -5 -17 8 -58 28 61 -20 18 -6 -16 9 -56 32 60 -24 17 -7 -16 10 -54 35 58 -28 17 -8 -15 11 -52 39 56 -31 16 -9 -14 12 -49 42 54 -35 16 -10 -13 13 -47 45 52 -38 15 -11 -13 14 -44 48 49 -42 14 -12 -12 15 -41 51 47 -45 14 -13 -11 15 -37 53 44 -47 13 -14 -10 16 -34 55 41 -50 12 -15 -9 17 -30 57 38 -53 11 -16 -8 17 -27 59 34 -55 10 -16 -7 18 -23 61 31 -57 9 -17 -6 18 -19 62 27 -59 8 -17 -5 19 -16 63 24 -60 7 -18 -3 19 -12 64 20 -62 6 -18 -2 19 -8 65 16 -63 5 -19 -1 19 -4 65 12 -64 4 -19 0 19 0 65 8 -65 2 -19 1 19 4 65 4 -65 1 -19 2 19 8 65 0 -65 0 -19 4 19 12 64 -4 -65 -1 -19 5 19 16 63 -8 -65 -2 -19 6 18 20 62 -12 -64 -3 -19 7 18 24 60 -16 -63 -5 -19 8 17 27 59 -19 -62 -6 -18 9 17 31 57 -23 -61 -7 -18 10 16 34 55 -27 -59 -8 -17 11 16 38 53 -31 -57 -9 -17 12 15 41 50 -34 -55 -10 -16 13 14 44 47 -37 -53 -11 -15 14 13 47 45 -41 -51 -12 -15 14 12 49 42 -44 -48 -13 -14 15 11 52 38 -47 -45 -13 -13 16 10 54 35 -49 -42 -14 -12 16 9 56 31 -52 -39 -15 -11 17 8 58 28 -54 -35 -16 -10 17 7 60 24 -56 -32 -16 -9 18 6 61 20 -58 -28 -17 -8 18 5 62 16 -60 -24 -17 -7 18 3 63 12 -61 -21 -17 -6 18 2 64 8 -62 -17 -18 -5 18 1 64 4 -63 -13 -18 -4 18 0 64 0 -64 -8 -18 -2 18 -1 64 -4 -64 -4 -18 -1 18 -2 64 -8 -64 0 -18 0 18 -4 63 -13 -64 4 -18 1 18 -5 62 -17 -64 8 -18 2 17 -6 61 -21 -63 12 -18 3 17 -7 60 -24 -62 16 -18 5 17 -8 58 -28 -61 20 -18 6 16 -9 56 -32 -60 24 -17 7 16 -10 54 -35 -58 28 -17 8 15 -11 52 -39 -56 31 -16 9 14 -12 49 -42 -54 35 -16 10 13 -13 47 -45 -52 38 -15 11 13 -14 44 -48 -49 42 -14 12 12 -15 41 -51 -47 45 -14 13 11 -15 37 -53 -44 47 -13 14 10 -16 34 -55 -41 50 -12 15 9 -17 31 -57 -38 53 -11 16 8 -17 27 -59 -34 55 -10 16 7 -18 23 -61 -31 57 -9 17 6 -18 19 -62 -27 59 -8 17 5 -19 16 -63 -24 60 -7 18 3 -19 12 -64 -20 62 -6 18 2 -19 8 -65 -16 63 -5 19 1 -19 4 -65 -12 64 -4 19 0 -19 0 -65 -8 65 -2 19 -1 -19z"/>
  <path class="fil13" d="M6029 3995c156,-14 291,-163 481,-115 92,23 232,187 494,98 215,-73 233,-150 487,-30 184,87 301,116 456,-16 24,-25 7,-62 -33,-57 -260,113 -159,99 -463,-25 -245,-100 -320,24 -505,69 -349,85 -273,-255 -742,-53 -124,54 -160,66 -179,75 -24,11 -24,45 6,54z"/>
  <path class="fil13" d="M6090 4285c156,-14 291,-163 480,-115 92,24 232,187 494,98 215,-73 233,-150 487,-30 184,87 301,116 456,-16 24,-25 7,-62 -33,-57 -260,113 -159,99 -463,-25 -245,-100 -320,24 -505,69 -349,85 -273,-255 -742,-53 -124,54 -160,66 -179,75 -24,11 -24,45 6,54z"/>
  <path class="fil13" d="M6040 4523c156,-14 291,-163 481,-115 92,23 232,187 494,98 215,-73 233,-150 487,-30 184,87 301,116 456,-16 24,-25 7,-62 -33,-57 -260,113 -159,99 -463,-25 -245,-100 -320,24 -505,69 -349,85 -273,-255 -742,-53 -124,54 -160,66 -179,75 -24,11 -24,45 6,54z"/>
  <path class="fil13" d="M6065 4795c156,-14 291,-163 481,-115 92,24 232,187 494,98 215,-73 233,-150 487,-30 184,87 301,116 456,-16 24,-25 7,-62 -33,-57 -260,113 -159,99 -463,-25 -245,-100 -320,24 -505,69 -349,85 -273,-255 -742,-53 -124,54 -160,66 -179,75 -24,11 -24,45 6,54z"/>
  <polygon class="fil21" points="5707,183 5846,613 6297,612 5932,876 6072,1306 5707,1039 5342,1306 5483,876 5117,612 5568,613 "/>
  <path class="fil4" d="M5725 177l135 417 438 -1 56 0 -46 33 -355 257 136 417 18 54 -46 -33 -354 -258 -354 258 -46 33 18 -54 136 -417 -355 -257 -46 -33 56 0 438 1 135 -417 17 -54 17 54zm104 441l-121 -376 -121 376 -4 13 -13 0 -395 -1 320 232 11 8 -4 13 -123 376 319 -233 11 -8 11 8 319 233 -123 -376 -4 -13 11 -8 320 -232 -395 1 -13 0 -4 -13z"/>
  <path class="fil22" d="M6329 9284c0,0 107,-552 831,-735 389,-98 685,-135 975,-45 251,77 497,248 795,555"/>
  <path class="fil12" d="M5016 9267c-68,-118 -817,-1035 -1492,-1199 -674,-164 -1376,189 -1421,1084 0,0 633,-639 1499,-128 866,511 1414,244 1414,244z"/>
  <path class="fil4" d="M5037 9255c-44,-76 -367,-480 -771,-804 -231,-185 -488,-345 -736,-406 -86,-21 -173,-34 -258,-38 -260,-13 -511,50 -716,192 -205,142 -363,361 -436,660 -22,90 -36,188 -41,292l-3 62 44 -44c2,-2 620,-626 1470,-125 877,517 1435,245 1436,245l24 -11 -13 -23zm-2056 -789c-19,6 -50,14 -83,29 -114,40 -227,99 -345,181 -122,85 -276,239 -418,384 7,-67 18,-130 33,-190 70,-286 220,-496 416,-631 196,-135 437,-196 686,-183 83,4 166,16 249,37 85,21 171,54 257,95l-1 1c20,9 68,35 111,150 31,83 57,151 83,198 -14,-4 -28,-8 -42,-11 -88,-22 -171,-41 -251,-56 -76,-31 -139,-140 -174,-200 -5,-9 -10,-17 -14,-25 -19,-33 -68,-70 -122,-101 -28,-16 -68,-54 -166,-43 -5,46 103,62 142,85 48,27 90,59 105,84 4,7 9,15 14,24 26,46 63,111 114,159 -60,-9 -119,-16 -176,-19 -51,-3 -101,-4 -150,-2 -50,-13 -103,-85 -138,-138 -13,-20 -26,-39 -38,-54 -27,-34 -87,-59 -149,-73 -30,-6 -190,-33 -167,25 15,36 89,9 157,23 53,11 101,31 121,55 10,13 22,31 35,50 27,41 57,87 94,117 -62,6 -122,17 -182,33l-1 -3zm-718 533c111,-112 224,-218 318,-284 60,-42 119,-77 177,-107l0 0c-46,67 -60,109 -84,220 -171,37 -311,107 -411,170zm457 -180c6,-59 26,-107 64,-162 46,-67 117,-108 167,-129l4 -1c142,-44 286,-57 442,-47 12,1 24,2 36,3 -3,4 -6,8 -9,12 -50,66 -156,185 -278,212 -161,35 -160,48 -160,96 -94,-5 -183,2 -265,17zm313 -14c0,-34 -3,-24 122,-51 137,-30 252,-159 306,-230 10,-14 19,-26 25,-35l1 -1c131,15 273,45 429,84 67,17 128,37 184,59 -157,16 -469,73 -690,268 -133,-55 -259,-84 -377,-94zm426 116c273,-227 678,-246 735,-248 459,226 534,614 535,615l48 -10c0,-2 -97,-501 -721,-716l0 0c-38,-15 -72,-104 -124,-242 -10,-26 -19,-47 -29,-66 114,67 227,147 334,233 367,295 666,655 744,767 -116,44 -619,187 -1365,-253 -53,-31 -104,-58 -155,-81z"/>
  <path class="fil12" d="M4561 8923c530,189 1044,809 917,998 -80,119 -682,304 -682,304l-547 -213c-452,-66 -828,-203 -1284,210 -46,-442 13,-673 95,-803 379,-602 1012,-669 1501,-495z"/>
  <path class="fil4" d="M5330 9478c-110,-138 -263,-281 -432,-396 -106,-71 -219,-131 -332,-172 -268,-95 -578,-119 -868,-24 -244,81 -473,246 -648,524 -42,66 -78,158 -97,289 -19,130 -23,299 0,522l2 24 18 -16c392,-355 726,-298 1101,-235 56,10 113,19 172,28l545 213 4 2 4 -1c2,-1 606,-186 689,-309 5,-8 10,-17 13,-26 46,-128 -93,-317 -171,-422zm-47 -19c-165,-66 -334,-118 -497,-155 -34,-128 -103,-266 -177,-351 94,38 187,90 276,149 154,103 293,231 399,356zm-744 -532c77,101 159,253 195,365 -54,-11 -107,-21 -159,-29l-1 -2c0,0 -2,1 -4,2 -61,-9 -121,-17 -178,-21l2 -2c0,0 -128,-102 -161,-141 -11,-13 -10,-40 -17,-51 -16,-24 -32,-48 -78,-89 -46,-41 -119,-60 -168,-73 -11,-3 -46,-14 -67,-21 217,-32 438,-5 636,63zm-714 -49c31,13 117,50 133,54 44,12 110,42 146,75 41,36 57,45 71,67 9,13 12,33 25,48 23,26 79,79 118,114 -90,-4 -174,-3 -249,5 -101,-27 -148,-64 -204,-107 -27,-21 -55,-43 -93,-67 -73,-47 -210,-57 -256,-61 -4,0 -13,-1 -21,-2 68,-39 138,-71 210,-94 39,-13 79,-24 119,-32zm-369 151c17,7 55,26 57,26 43,3 171,13 233,53 35,22 63,44 89,65 41,32 78,61 133,85 -138,30 -255,73 -355,124 -39,-2 -97,-6 -127,-11 -40,-6 -82,-12 -111,-12 -55,0 -252,59 -312,78 3,-4 5,-8 8,-12 110,-175 241,-304 384,-395zm-421 465c35,-11 286,-87 341,-87 27,0 66,6 104,12 19,3 37,6 54,8 -369,227 -452,561 -473,601l27 -53c43,-70 92,-137 146,-202 -8,29 -14,61 -19,91 -5,32 -16,39 -16,63 0,30 -2,61 12,70 4,3 19,14 29,18 -86,42 -174,100 -265,180 -20,-208 -16,-368 2,-492 13,-86 33,-154 57,-209zm212 519c0,-38 0,-58 0,-90 0,-21 13,-22 17,-52 10,-70 31,-148 54,-173l-9 -8c119,-124 260,-231 425,-305 -44,76 -116,202 -151,265 -62,75 -43,134 -40,191l65 83c-119,5 -238,30 -361,89zm368 -89c-8,-41 -29,-177 11,-250 45,-82 159,-279 182,-319 57,-21 116,-39 179,-52 136,-28 319,-28 524,-1 -19,18 -39,42 -56,74 -20,39 -97,70 -182,104 -70,28 -145,58 -204,99 -127,86 -128,313 -126,369 -111,-17 -219,-29 -328,-25zm358 29c2,-53 16,-260 123,-333 56,-38 128,-67 195,-94 95,-38 180,-72 208,-127 26,-52 62,-77 80,-87 244,39 513,114 768,224 107,144 162,277 134,355 -3,8 -6,15 -10,21 -74,110 -619,282 -672,298l-543 -212 -1 -1 -1 0c-59,-9 -116,-18 -172,-28 -36,-6 -72,-12 -107,-18z"/>
  <path class="fil5" d="M5503 8696c-389,424 -491,699 8,1063 365,-280 385,-659 -8,-1063z"/>
  <path class="fil2" d="M5369 9370c0,36 -1,193 -11,193 -3,0 -18,-9 -39,-21 -15,-9 -34,-20 -54,-30 25,35 55,70 91,105 43,42 93,85 153,129 14,-11 27,-21 40,-32 14,-12 27,-24 39,-36 21,-21 41,-42 59,-63 17,-20 32,-41 46,-62 -30,-34 -59,-99 -84,-155 -18,-40 -34,-75 -46,-92 -19,25 -26,135 -30,209 -2,37 -4,65 -7,71l-2 4 -4 -1c-12,-3 -28,-34 -46,-72 -29,-57 -66,-133 -105,-146zm-11 182c1,0 -1,-189 -1,-189l0 -7 7 1c48,7 89,91 120,154 14,28 26,52 34,62 1,-11 3,-32 4,-59 5,-80 12,-203 39,-221l4 -3 3 4c14,15 32,55 52,100 26,58 56,124 85,156l3 3 -2 4c-15,23 -31,45 -49,67 -18,22 -38,43 -60,64 -13,12 -26,25 -40,37 -14,12 -28,24 -44,36l-3 3 -4 -3c-62,-45 -114,-89 -158,-132 -44,-43 -79,-85 -106,-127l-12 -19 20 11c27,14 54,30 75,42l33 19z"/>
  <path class="fil12" d="M5363 9363c0,0 0,195 -5,195 -3,0 -59,-34 -111,-62 54,83 140,167 263,258 30,-23 58,-47 83,-72 43,-42 79,-85 108,-130 -53,-57 -106,-222 -137,-255 -35,24 -35,272 -43,285 -27,-7 -88,-209 -159,-219z"/>
  <path class="fil4" d="M5503 8704c-192,209 -313,382 -324,547 -12,165 86,323 332,503 30,-23 58,-47 83,-72 122,-119 188,-253 192,-396 4,-144 -53,-298 -175,-458 -32,-41 -67,-83 -108,-124zm-334 546c12,-169 135,-344 330,-557l3 -4 4 4c42,43 79,86 112,129 124,162 182,318 177,464 -4,146 -71,282 -195,403 -26,26 -55,50 -87,75l-3 2 -3 -2c-251,-183 -351,-345 -339,-514z"/>
  <path class="fil5" d="M3918 9789c518,424 1167,743 1587,-4 -642,-661 -993,-275 -1587,4z"/>
  <path class="fil2" d="M4906 9707c-6,-3 -9,-7 -6,-12l1 -1 1 -1c116,-79 244,-121 291,-137l14 -5c2,-1 5,-1 9,-2 3,0 8,0 13,0l2 0 1 1c43,28 87,61 133,99 46,38 93,82 141,132l3 3 -2 4c-43,76 -88,141 -136,196 -47,55 -97,100 -148,135l-13 9 6 -25c10,-39 22,-88 23,-113l1 -11c-4,0 -25,1 -53,4 -80,6 -221,18 -239,4 -5,-4 -6,-8 -2,-13 9,-11 63,-43 125,-78 66,-38 139,-80 170,-106 9,-7 14,-11 14,-12 -8,-9 -101,-25 -188,-40 -73,-12 -142,-24 -160,-33zm9 -9c21,8 85,19 153,30 90,15 185,32 195,44 5,7 -1,17 -15,28 -31,26 -105,68 -172,107 -57,33 -108,62 -120,73 23,9 153,-2 228,-8 29,-2 49,-4 55,-4 8,0 11,9 10,23 -1,25 -13,71 -22,109 46,-34 90,-75 133,-124 46,-53 90,-116 132,-190 -47,-48 -93,-91 -137,-128 -45,-38 -88,-70 -130,-97l-10 0c-3,0 -5,0 -6,1l-14 5c-45,15 -168,56 -281,131z"/>
  <path class="fil12" d="M4905 9698c-8,16 335,57 353,78 18,22 -288,177 -308,203 -20,26 269,-5 289,-4 15,1 -7,85 -21,140 102,-71 197,-178 282,-329 -97,-99 -187,-175 -273,-230 -10,0 -17,0 -20,1 -27,10 -173,52 -303,141z"/>
  <path class="fil4" d="M3917 9793c260,213 552,399 833,438 281,40 550,-68 761,-443l2 -3 -3 -3c-539,-555 -874,-376 -1316,-139 -87,47 -178,95 -276,141l-7 3 6 5zm834 429c-276,-39 -565,-222 -822,-431 95,-45 184,-93 269,-138 438,-235 770,-412 1302,134 -208,369 -473,474 -750,435z"/>
  <path class="fil23" d="M4651 6061c27,-36 40,-82 54,-159 6,-94 -43,-187 -98,-290 -31,-59 -64,-120 -90,-188 -28,51 -60,100 -91,148 -31,48 -62,95 -86,140 -83,155 -94,297 181,448 65,-38 104,-65 129,-100z"/>
  <path class="fil23" d="M4333 6097c-49,-26 -101,-40 -170,-47l0 0c-27,-2 -56,3 -85,11 -34,9 -67,24 -95,40 -27,15 -55,34 -84,53 -58,38 -120,78 -193,107l34 16c129,62 264,126 420,136 23,-1 51,-2 77,-5 24,-3 46,-9 58,-17 30,-22 53,-49 77,-78 28,-33 58,-69 105,-106 -54,-50 -99,-85 -144,-109z"/>
  <path class="fil23" d="M4742 5908c-12,65 -24,110 -43,146 44,-22 92,-35 158,-41l2 0c31,-2 65,3 97,12 37,10 73,26 104,43 32,18 61,39 91,59 61,42 124,86 208,110l0 0c5,1 10,5 12,10 4,9 0,21 -9,25 -31,14 -63,30 -95,46 -122,60 -245,121 -400,131l-2 0c-25,-1 -51,-2 -75,-7 -19,-4 -37,-9 -52,-16 30,55 51,116 63,181l0 1 0 1c1,9 1,17 0,26 -4,74 -44,145 -83,206 -45,70 -95,136 -134,210 -16,30 -29,60 -39,92l-15 46 -22 -44c-22,-44 -47,-87 -71,-130 -30,-52 -58,-105 -82,-160 -28,-66 -49,-134 -62,-205l0 -1 0 -1c-12,-89 6,-172 45,-246 -7,6 -13,11 -21,17 -17,13 -45,20 -75,24 -28,4 -58,5 -83,6l-2 0c-164,-11 -301,-77 -434,-140 -27,-13 -55,-26 -77,-36 -9,-4 -14,-15 -9,-25 2,-5 7,-9 12,-10l0 0c89,-26 161,-73 228,-117 29,-19 57,-37 86,-54 31,-18 67,-33 104,-43 33,-9 66,-14 97,-12l2 0c56,6 101,16 142,32 -93,-114 -67,-229 -2,-350 25,-47 56,-94 88,-143 38,-58 78,-119 110,-182 5,-9 16,-13 25,-8 5,3 8,7 10,12 26,80 64,153 101,222 57,108 109,206 102,311 0,1 0,2 -1,3z"/>
  <path class="fil23" d="M4861 6050c-69,7 -116,20 -160,46 -40,23 -80,58 -133,107 51,35 81,75 109,112 22,29 43,56 69,74 13,8 31,14 51,18 21,4 45,6 67,6 148,-10 267,-69 386,-128 18,-9 36,-18 54,-26 -68,-27 -122,-64 -174,-100 -30,-21 -59,-41 -88,-58 -28,-16 -61,-30 -95,-40 -29,-8 -58,-12 -85,-11l0 0z"/>
  <path class="fil24" d="M4782 6611c-30,-162 -117,-297 -262,-382 -141,101 -231,252 -207,418 44,224 135,335 214,490 66,-206 267,-360 255,-526z"/>
  <path class="fil24" d="M4724 5904c-30,162 -58,193 -202,278 -482,-259 -156,-497 0,-805 66,206 214,360 202,527z"/>
  <path class="fil23" d="M4517 5453c-5,31 -8,119 -9,222 -23,-17 -57,-29 -83,-34 26,14 58,31 83,46 0,42 -1,87 0,131 -29,-23 -75,-39 -108,-45 35,19 76,40 108,61 0,38 1,75 1,110 -29,-24 -76,-40 -110,-46 35,19 78,41 110,62 2,99 6,178 11,195 3,-17 6,-95 7,-194 33,-22 76,-51 115,-60 -24,-3 -79,14 -115,42 1,-34 1,-71 1,-108 33,-22 75,-50 113,-59 -23,-3 -78,13 -113,41 0,-53 0,-107 -1,-156 25,-16 58,-33 86,-48 -27,5 -63,18 -86,36 -1,-92 -5,-167 -10,-196z"/>
  <path class="fil24" d="M4164 6031c145,15 216,58 342,176 -102,74 -130,145 -201,197 -29,21 -99,25 -147,26 -191,-13 -349,-104 -504,-174 130,-37 223,-119 319,-173 56,-32 129,-57 191,-53z"/>
  <path class="fil23" d="M3746 6263c36,5 88,-1 208,0 -20,21 -34,52 -39,75 17,-24 35,-52 54,-75 49,0 101,0 152,0 -27,26 -46,68 -53,98 22,-31 47,-69 71,-98 44,0 87,-1 128,-1 -28,26 -47,68 -54,99 22,-32 48,-70 72,-99 8,-3 49,-4 69,-8 -20,-3 -51,-6 -68,-8 -26,-30 -59,-69 -70,-104 -4,21 16,71 49,104 -40,0 -82,-1 -125,-1 -26,-30 -58,-68 -68,-103 -4,21 16,70 48,102 -62,0 -124,0 -182,1 -19,-23 -38,-53 -56,-77 6,24 20,57 42,78 -106,1 -145,12 -178,17z"/>
  <path class="fil24" d="M4860 6031c-145,15 -196,56 -322,174 106,65 130,153 198,198 30,20 81,26 130,27 191,-13 334,-105 489,-176 -130,-37 -208,-117 -304,-171 -56,-32 -129,-57 -191,-53z"/>
  <path class="fil23" d="M5279 6263c-36,5 -88,-1 -208,0 20,21 34,52 39,75 -17,-24 -35,-52 -54,-75 -49,0 -101,0 -152,0 27,26 46,68 53,98 -22,-31 -47,-69 -71,-98 -44,0 -87,-1 -128,-1 28,26 47,68 54,99 -22,-32 -48,-70 -72,-99 -8,-3 -49,-4 -69,-8 20,-3 51,-6 68,-8 26,-30 59,-69 70,-104 4,21 -16,71 -49,104 40,0 82,-1 125,-1 26,-30 58,-68 68,-103 4,21 -16,70 -48,102 62,0 124,0 182,1 19,-23 38,-53 56,-77 -6,24 -20,57 -42,78 106,1 145,12 178,17z"/>
  <path class="fil23" d="M4516 7073c-5,-36 -8,-138 -9,-258 -23,20 -57,34 -83,39 26,-17 58,-35 83,-54 0,-49 0,-101 0,-152 -29,27 -75,46 -108,53 35,-22 76,-47 108,-71 0,-44 1,-87 1,-128 -29,28 -76,47 -110,54 35,-22 78,-48 110,-72 2,-115 6,-206 11,-226 3,20 6,111 7,225 33,26 76,59 115,70 -24,4 -79,-16 -115,-49 0,40 1,82 1,125 33,26 75,58 113,68 -23,4 -78,-16 -113,-48 0,62 0,124 -1,182 25,19 58,38 86,56 -27,-6 -63,-20 -86,-42 -1,106 -5,194 -10,228z"/>
  <path class="fil25" d="M4087 3145c-91,-140 -135,-333 -135,-471 -1,-68 25,-143 90,-203 30,178 175,219 266,435 10,24 19,50 27,76 16,-60 37,-115 61,-160l2 -4 85 -121 52 89c32,55 52,122 64,192l41 -58 52 89c39,66 60,151 70,235l48 -68 52 89c36,61 57,138 68,216l37 -52 52 89c36,62 58,140 68,220l44 -62 52 89c65,112 83,277 74,403 -5,70 -19,143 -45,211l0 0c48,224 145,358 248,470 32,49 -61,118 -92,81 -87,-145 -192,-307 -376,-423 -101,14 -209,-6 -303,-39 -120,-42 -264,-124 -340,-229l-61 -83 69 -14c-68,-41 -130,-92 -172,-149l-61 -83 82 -17c-70,-42 -135,-93 -178,-152l-61 -83 77 -16c-73,-42 -141,-96 -186,-157l-61 -83 87 -18c-74,-43 -143,-97 -189,-159l-61 -83 145 -30 5 0c87,-5 197,7 303,36z"/>
  <path class="fil26" d="M5089 4462c138,-173 125,-514 37,-665l-23 32c-88,175 -139,488 -14,633z"/>
  <path class="fil26" d="M5026 4431c-214,58 -521,-91 -624,-232l39 -8c196,-11 503,68 586,240z"/>
  <path class="fil26" d="M4924 4216c138,-173 125,-514 37,-665l-23 32c-88,175 -139,488 -14,633z"/>
  <path class="fil26" d="M4861 4184c-214,58 -521,-91 -624,-232l39 -8c196,-11 503,68 586,240z"/>
  <path class="fil26" d="M4768 3963c138,-173 125,-514 37,-665l-23 32c-88,175 -139,488 -14,633z"/>
  <path class="fil26" d="M4705 3932c-214,58 -521,-91 -624,-232l39 -8c196,-11 503,68 586,240z"/>
  <path class="fil26" d="M4598 3707c138,-173 125,-514 37,-665l-23 32c-88,175 -139,488 -14,633z"/>
  <path class="fil26" d="M4535 3675c-214,58 -521,-91 -624,-232l39 -8c196,-11 503,68 586,240z"/>
  <path class="fil26" d="M4441 3484c138,-173 125,-514 37,-665l-23 32c-88,175 -139,488 -14,633z"/>
  <path class="fil26" d="M4373 3415c-214,58 -521,-91 -624,-232l39 -8c196,-11 503,68 586,240z"/>
  <path class="fil26" d="M4291 3245c46,-216 -120,-515 -267,-610l-6 39c0,196 96,499 273,571z"/>
  <path class="fil14" d="M2938 7771c74,-73 119,-225 128,-366 7,-122 -18,-365 -88,-456 -93,159 -227,617 -40,822z"/>
  <path class="fil27" d="M2939 7753c30,-33 55,-81 74,-136 23,-66 37,-141 42,-214 4,-68 -2,-174 -20,-269 -12,-65 -31,-124 -55,-164 -52,98 -114,282 -123,459 -6,124 14,243 82,324zm96 -128c-22,63 -52,117 -88,154l-9 8 -8 -9c-79,-87 -103,-216 -96,-350 9,-191 79,-391 135,-485l9 -15 11 14c32,41 55,112 70,188 19,98 25,206 21,275 -5,75 -19,153 -43,220z"/>
  <path class="fil28" d="M6916 6001l226 0c34,0 63,28 63,63l0 395 395 0c34,0 63,28 63,63l0 226c0,34 -28,63 -63,63l-395 0 0 395c0,34 -28,63 -63,63l-226 0c-34,0 -63,-28 -63,-63l0 -395 -395 0c-34,0 -63,-28 -63,-63l0 -226c0,-34 28,-63 63,-63l395 0 0 -395c0,-34 28,-63 63,-63z"/>
  <path class="fil29" d="M6900 5716l257 0 0 158c48,8 95,21 140,37l79 -137 223 128 -79 137c37,31 72,65 103,103l137 -79 128 223 -137 79c17,45 29,92 37,140l158 0 0 257 -158 0c-8,48 -21,95 -37,140l137 79 -128 222 -137 -79c-31,37 -65,72 -103,103l79 137 -222 128 -79 -137c-45,17 -92,29 -140,37l0 158 -257 0 0 -158c-48,-8 -95,-21 -140,-38l-79 137 -223 -128 79 -137c-37,-31 -72,-65 -103,-103l-137 79 -128 -222 137 -79c-17,-45 -29,-92 -37,-140l-158 0 0 -257 158 0c8,-48 21,-95 37,-140l-137 -79 128 -223 137 79c31,-37 65,-72 103,-103l-79 -137 223 -128 79 137c45,-17 92,-29 140,-38l0 -158zm128 335c322,0 583,261 583,583 0,322 -261,583 -583,583 -322,0 -583,-261 -583,-583 0,-322 261,-583 583,-583z"/>
  <path class="fil2" d="M6900 5697l276 0 0 161c19,4 38,8 57,13 19,5 37,11 56,17l81 -139 255 147 -81 140c15,13 29,26 43,40 14,14 27,28 40,43l140 -81 147 255 -140 81c6,18 12,37 17,56 5,19 9,38 13,57l161 0 0 295 -161 0c-4,19 -8,38 -13,57 -5,19 -11,37 -17,56l140 81 -147 255 -140 -81c-13,15 -26,29 -40,43 -14,14 -28,27 -43,40l81 140 -255 147 -81 -140c-18,6 -37,12 -56,17 -19,5 -38,9 -57,13l0 161 -295 0 0 -161c-19,-4 -38,-8 -57,-13 -19,-5 -37,-11 -56,-17l-81 140 -255 -147 81 -140c-15,-13 -29,-26 -43,-40 -14,-14 -27,-28 -40,-43l-140 81 -147 -255 140 -81c-6,-18 -12,-37 -17,-56 -5,-19 -9,-38 -13,-57l-161 0 0 -295 161 0c4,-19 8,-38 13,-57 5,-19 11,-37 17,-56l-140 -81 147 -255 140 81c13,-15 26,-29 40,-43 14,-14 28,-27 43,-40l-81 -140 255 -147 81 139c19,-6 37,-12 56,-17 19,-5 38,-9 57,-13l0 -161 19 0zm238 38l-219 0 0 155 -16 3c-23,4 -46,9 -69,15 -23,6 -46,13 -68,21l-15 6 -78 -134 -190 110 78 135 -12 10c-18,15 -36,31 -52,48 -17,17 -33,34 -48,53l-10 12 -134 -78 -110 190 134 78 -6 15c-8,22 -15,44 -21,67 -6,23 -11,46 -15,69l-3 16 -155 0 0 219 155 0 3 16c4,23 9,47 15,69 6,23 13,46 21,67l6 15 -134 78 110 190 135 -78 10 12c15,18 31,36 48,52 17,17 34,33 52,48l12 10 -78 134 190 110 78 -134 15 6c22,8 44,15 68,21 23,6 46,11 69,15l16 3 0 155 219 0 0 -155 16 -3c23,-4 47,-9 69,-15 23,-6 46,-13 67,-21l15 -6 78 134 190 -110 -78 -134 12 -10c18,-15 36,-31 52,-48 17,-17 32,-34 48,-52l10 -12 135 78 110 -190 -134 -78 6 -15c8,-22 15,-44 21,-67 6,-23 11,-46 15,-69l3 -16 155 0 0 -219 -155 0 -3 -16c-4,-23 -9,-46 -15,-69 -6,-23 -13,-46 -21,-67l-6 -15 134 -78 -110 -190 -135 78 -10 -12c-15,-18 -31,-36 -48,-52 -17,-17 -34,-33 -52,-48l-12 -10 78 -135 -190 -110 -78 134 -15 -6c-22,-8 -44,-15 -67,-21 -23,-6 -46,-11 -69,-15l-16 -3 0 -155zm-110 297c166,0 317,67 426,176 109,109 176,259 176,426 0,166 -67,317 -176,425 -109,109 -259,176 -426,176 -166,0 -317,-67 -425,-176 -109,-109 -176,-259 -176,-425 0,-166 67,-317 176,-426 109,-109 259,-176 425,-176zm399 203c-102,-102 -243,-165 -399,-165 -156,0 -297,63 -399,165 -102,102 -165,243 -165,399 0,156 63,297 165,399 102,102 243,165 399,165 156,0 297,-63 399,-165 102,-102 165,-243 165,-399 0,-156 -63,-297 -165,-399z"/>
  <path class="fil29" d="M7029 6474c88,0 160,72 160,160 0,88 -72,160 -160,160 -88,0 -160,-72 -160,-160 0,-88 72,-160 160,-160z"/>
  <path class="fil29" d="M1883 11573l682 -1055c25,-720 1441,-74 488,359l-706 958 -464 -263z"/>
  <path class="fil2" d="M1859 11557l678 -1049c12,-256 189,-349 381,-342 96,3 196,32 280,78 85,47 155,112 189,188 65,144 4,319 -316,467l-717 973 -513 -290 16 -25zm730 -1024l-666 1030 416 235 695 -944 7 -3c288,-131 348,-278 294,-395 -29,-64 -90,-120 -165,-161 -77,-42 -167,-69 -254,-72 -164,-6 -315,75 -323,296l0 8 -4 7z"/>
  <path class="fil29" d="M9212 11573l-639 -1055c-31,-795 -1514,-46 -561,387l736 931 464 -263z"/>
  <path class="fil2" d="M9172 11562l-628 -1037 0 -7c-9,-242 -165,-329 -337,-322 -95,4 -195,35 -280,84 -84,48 -153,114 -186,187 -58,128 -3,282 281,411l6 3 725 918 418 -236zm-572 -1053l651 1074 -511 289 -747 -945c-316,-146 -373,-329 -303,-483 38,-84 115,-158 209,-213 93,-53 202,-88 306,-92 200,-8 381,92 395,369z"/>
  <path class="fil29" d="M2175 12025l884 -1156c1690,968 3474,926 4952,35l966 1190c-2167,1205 -5111,1157 -6802,-69z"/>
  <path class="fil2" d="M2153 12008l899 -1176 22 12c828,474 1679,705 2504,711 850,6 1673,-226 2419,-675l21 -13c334,412 668,823 1003,1235l-30 16c-1084,603 -2361,893 -3580,881 -1229,-12 -2399,-333 -3253,-952l-24 -17 18 -23zm914 -1102l-851 1113c842,601 1990,912 3196,924 1198,12 2454,-271 3522,-858l-929 -1144c-748,446 -1574,676 -2427,670 -828,-6 -1681,-235 -2511,-706z"/>
  <path class="fil29" d="M1362 9226c389,594 810,954 1204,1292l-748 1219c-684,-609 -1306,-1118 -1752,-2166 571,398 1072,718 1614,1035l-317 -1380z"/>
  <path class="fil2" d="M1385 9210c384,587 802,946 1192,1280l25 21 -779 1269 -151 -134c-637,-565 -1213,-1076 -1634,-2065l-39 -91 81 56c284,198 552,378 817,547 245,157 487,305 739,453l-338 -1470 87 133zm1143 1313c-361,-310 -745,-642 -1105,-1156l298 1296 -57 -33c-271,-158 -532,-318 -797,-488 -238,-153 -480,-314 -737,-491 413,918 968,1411 1579,1953l100 89 718 -1170z"/>
  <path class="fil29" d="M9776 9226c-389,594 -810,954 -1204,1292l748 1219c684,-609 1306,-1118 1752,-2166 -571,398 -1072,718 -1614,1035l317 -1380z"/>
  <path class="fil2" d="M9714 9367c-360,514 -744,846 -1105,1156l718 1170 100 -89c611,-542 1167,-1035 1579,-1953 -256,177 -498,339 -737,491 -265,170 -526,329 -797,488l-57 33 298 -1296zm-1154 1123c390,-335 807,-693 1192,-1280l87 -133 -338 1470c251,-148 494,-296 739,-453 265,-170 533,-349 817,-547l81 -56 -39 91c-421,989 -997,1500 -1634,2065l-151 134c-260,-423 -519,-846 -779,-1269l25 -21z"/>
  <path class="fil2" d="M4104 11706l102 28c23,6 40,13 51,20 15,9 26,22 35,37 8,15 13,33 14,52 1,19 -2,42 -9,68 -6,23 -14,42 -25,57 -12,18 -27,32 -43,41 -12,7 -27,11 -45,11 -13,1 -30,-2 -51,-8l-105 -29 76 -277zm43 62l-50 183 42 11c16,4 27,6 34,7 10,0 18,-2 26,-5 7,-4 15,-11 22,-23 7,-11 14,-28 20,-49 6,-21 8,-38 8,-51 -1,-12 -3,-23 -8,-31 -5,-8 -12,-15 -22,-20 -7,-4 -22,-9 -45,-15l-25 -7zm177 292l63 -280 207 46 -11 47 -151 -34 -14 62 140 31 -11 47 -140 -31 -17 76 156 35 -11 47 -213 -48zm280 56l42 -282 58 9 -35 234 142 21 -7 48 -200 -30zm255 36l34 -285 58 7 -34 285 -58 -7zm228 -65l57 -3c3,19 9,33 19,43 10,9 24,14 41,15 19,1 33,-3 43,-10 10,-7 15,-16 15,-27 0,-7 -1,-13 -5,-18 -4,-5 -11,-9 -20,-13 -7,-3 -22,-8 -46,-15 -31,-9 -52,-20 -64,-31 -17,-17 -25,-36 -24,-59 1,-15 5,-28 14,-41 9,-12 21,-22 37,-28 16,-6 35,-9 57,-8 36,2 63,11 80,27 17,17 26,38 26,65l-58 -1c-2,-15 -7,-26 -14,-33 -8,-7 -20,-11 -36,-11 -17,-1 -30,2 -40,9 -6,4 -10,10 -10,17 0,7 2,13 8,18 7,7 24,14 52,22 28,8 48,16 61,23 13,8 23,18 30,31 7,13 10,28 9,46 -1,16 -6,32 -16,46 -10,14 -23,24 -40,30 -17,6 -38,9 -63,8 -36,-2 -64,-11 -82,-29 -19,-18 -29,-42 -32,-75zm295 106l9 -287 212 6 -1 49 -154 -5 -2 64 144 4 -1 49 -144 -4 -2 78 160 5 -1 49 -218 -7zm284 5l-18 -287 122 -7c31,-2 53,-1 67,4 14,4 26,13 35,25 9,13 14,27 15,44 1,22 -4,40 -16,54 -12,15 -30,25 -55,30 13,7 24,14 32,22 9,8 21,23 36,45l38 54 -69 4 -45 -60c-16,-21 -27,-35 -33,-40 -6,-5 -12,-9 -18,-11 -6,-2 -16,-2 -30,-1l-12 1 7 120 -58 4zm48 -169l43 -3c28,-2 45,-4 52,-7 7,-3 12,-7 15,-13 4,-6 5,-13 5,-22 -1,-10 -4,-17 -9,-23 -6,-6 -13,-9 -22,-10 -5,0 -19,0 -42,2l-45 3 4 73zm231 -138l105 -10c24,-2 42,-2 55,1 17,3 32,11 45,22 13,11 24,26 32,44 8,18 13,40 15,67 2,24 1,44 -3,62 -5,22 -14,39 -26,53 -9,11 -22,20 -38,27 -12,5 -29,9 -50,11l-108 10 -26 -286zm62 43l17 189 43 -4c16,-1 28,-3 35,-6 9,-3 17,-8 22,-14 6,-6 10,-16 13,-29 3,-13 3,-31 1,-53 -2,-22 -5,-39 -10,-50 -5,-11 -11,-20 -19,-26 -8,-6 -17,-10 -28,-11 -8,-1 -24,-1 -47,2l-26 2zm523 167l-62 10 -35 -60 -114 19 -13 68 -61 10 63 -302 61 -10 161 264zm-124 -95l-57 -98 -21 111 78 -13zm170 87l-64 -280 55 -13 158 161 -43 -188 52 -12 64 280 -57 13 -155 -158 42 184 -52 12zm395 -206l-14 -46 119 -37 34 109c-8,15 -22,30 -41,46 -19,15 -40,27 -63,34 -29,9 -55,11 -81,5 -25,-5 -46,-18 -64,-37 -18,-19 -31,-42 -39,-68 -9,-29 -11,-56 -6,-82 5,-26 17,-49 37,-68 15,-15 35,-26 61,-34 34,-11 63,-12 86,-3 24,8 42,24 55,48l-52 28c-8,-12 -19,-21 -32,-25 -13,-4 -27,-4 -43,1 -24,8 -41,21 -50,41 -9,20 -9,45 0,75 10,33 25,55 45,67 20,12 41,14 64,7 12,-4 22,-10 33,-18 10,-8 18,-17 25,-26l-11 -35 -63 20z"/>
  <path class="fil2" d="M3142 11856l105 46c21,9 36,17 45,23 9,6 17,14 23,23 6,9 9,19 11,31 1,12 0,23 -5,34 -5,12 -14,22 -25,29 -11,7 -24,11 -37,11 14,12 23,25 26,40 4,15 2,30 -5,45 -5,12 -13,22 -24,31 -11,9 -22,15 -35,17 -13,2 -26,1 -41,-3 -9,-3 -31,-12 -65,-26l-89 -40 116 -263zm34 67l-27 61 35 15c21,9 34,14 39,16 10,3 18,3 26,0 7,-3 13,-9 17,-17 4,-8 4,-16 2,-23 -2,-7 -8,-13 -16,-18 -5,-3 -20,-10 -45,-21l-30 -13zm-46 104l-31 70 49 22c19,8 31,13 37,14 9,2 16,1 24,-2 7,-3 13,-10 17,-19 4,-8 5,-15 3,-23 -1,-7 -5,-14 -11,-19 -6,-6 -21,-14 -45,-25l-43 -19zm176 214l96 -271 55 20 -38 107 107 38 38 -107 55 20 -96 271 -55 -20 42 -118 -107 -38 -42 118 -55 -20zm287 100l82 -275 56 17 -82 275 -56 -17zm124 38l76 -277 54 15 63 217 51 -186 52 14 -76 277 -56 -15 -62 -213 -50 182 -52 -14zm296 78l67 -279 207 49 -11 47 -150 -36 -15 62 140 33 -11 47 -140 -33 -18 76 156 37 -11 47 -212 -51zm278 61l44 -284 57 9 -19 126 135 -108 77 12 -124 94 86 191 -74 -11 -57 -145 -54 40 -13 86 -57 -9zm558 77l-62 -8 -17 -68 -114 -14 -32 62 -61 -8 146 -271 61 8 79 299zm-91 -126l-26 -110 -52 101 78 10zm235 135l16 -287 93 5c35,2 58,5 69,8 16,5 29,15 40,30 10,15 15,34 14,57 -1,18 -5,32 -12,44 -7,12 -16,21 -26,27 -10,6 -20,10 -31,12 -14,2 -34,2 -60,1l-38 -2 -6 108 -58 -3zm71 -235l-5 82 32 2c23,1 38,1 46,-2 8,-3 14,-7 19,-13 5,-6 7,-13 8,-22 1,-10 -2,-19 -8,-26 -6,-7 -13,-12 -23,-14 -7,-2 -21,-3 -41,-4l-28 -2zm212 248l8 -287 212 6 -1 49 -154 -5 -2 64 144 4 -1 49 -144 -4 -2 78 160 5 -1 49 -218 -6zm284 6l-10 -287 122 -4c31,-1 53,1 67,5 14,5 26,13 34,26 9,13 14,28 14,45 1,22 -5,40 -17,54 -12,14 -31,24 -56,29 13,7 23,14 32,23 8,8 20,24 35,45l37 55 -69 3 -44 -61c-16,-22 -26,-35 -32,-41 -6,-6 -12,-9 -18,-11 -6,-2 -16,-3 -29,-2l-12 0 4 120 -58 2zm52 -168l43 -2c28,-1 45,-3 52,-5 7,-3 12,-7 16,-13 4,-6 5,-13 5,-22 0,-10 -3,-17 -9,-23 -5,-6 -13,-9 -22,-10 -5,-1 -19,0 -42,1l-45 2 3 73zm254 156l-18 -287 58 -4 8 127 109 -134 78 -5 -101 118 125 168 -75 5 -87 -130 -44 51 5 87 -58 4zm561 -54l-62 8 -33 -62 -114 15 -15 68 -61 8 74 -299 61 -8 150 270zm-120 -100l-53 -100 -25 110 78 -10zm137 5l55 -15c6,18 15,31 27,38 12,7 26,9 43,6 18,-3 32,-9 40,-18 8,-9 11,-19 10,-30 -1,-7 -4,-12 -9,-16 -5,-4 -12,-7 -22,-9 -7,-1 -23,-3 -48,-5 -32,-3 -55,-9 -69,-18 -20,-13 -32,-31 -35,-53 -2,-14 0,-29 6,-43 6,-14 16,-25 31,-34 14,-9 32,-15 54,-19 35,-6 63,-2 84,11 20,13 33,32 38,59l-57 11c-5,-14 -12,-24 -21,-29 -9,-5 -22,-6 -38,-4 -17,3 -29,8 -37,17 -5,5 -7,12 -6,19 1,7 5,12 11,16 8,5 27,9 56,11 29,2 50,6 65,11 14,5 26,13 36,24 10,11 16,25 19,43 3,16 1,32 -6,48 -7,16 -18,28 -33,38 -15,10 -35,16 -60,20 -36,6 -65,2 -87,-12 -22,-13 -37,-36 -46,-67zm564 -5l-62 12 -36 -60 -113 21 -11 69 -60 11 57 -303 60 -11 166 261zm-125 -92l-59 -97 -19 112 77 -15zm295 -247l56 -14 44 176c6,23 8,41 7,55 -1,18 -8,33 -20,47 -12,13 -29,23 -53,29 -27,7 -51,5 -69,-7 -19,-12 -32,-32 -39,-62l52 -20c5,16 10,26 15,32 9,8 19,11 31,8 12,-3 20,-9 24,-17 3,-8 2,-24 -3,-46l-45 -180zm450 172l-60 18 -42 -56 -110 32 -4 69 -59 17 26 -307 59 -17 191 243zm-134 -79l-68 -91 -7 113 75 -22zm215 51l-38 -115 -152 -125 65 -21 100 87 28 -129 63 -21 -48 191 37 114 -55 18zm404 -147l-59 22 -46 -53 -108 40 0 70 -58 21 5 -308 58 -21 208 229zm-139 -70l-74 -86 1 113 74 -27z"/>
 </g>
</svg>
